{
.appVersion = "3133";
copyright = MIT;
date = "2021-01-09 05:20:43 +0000";
designer = "Gelehrte Crest";
designerURL = "http://gelehrte.com";
familyName = NieR;
fontMaster = (
{
ascender = 800;
capHeight = 700;
descender = -200;
id = "B1BCE86B-A7FB-414A-B0E3-B1B1CA0865E7";
xHeight = 500;
}
);
glyphs = (
{
glyphname = A;
lastChange = "2022-09-28 16:18:30 +0000";
layers = (
{
layerId = "B1BCE86B-A7FB-414A-B0E3-B1B1CA0865E7";
paths = (
{
closed = 1;
nodes = (
"30 616 OFFCURVE",
"57 642 OFFCURVE",
"90 642 CURVE SMOOTH",
"123 642 OFFCURVE",
"149 616 OFFCURVE",
"149 583 CURVE",
"145 567 LINE",
"411 298 LINE",
"560 544 LINE",
"560 544 OFFCURVE",
"560 544 OFFCURVE",
"560 544 CURVE SMOOTH",
"547 555 OFFCURVE",
"544 568 OFFCURVE",
"544 584 CURVE SMOOTH",
"544 617 OFFCURVE",
"570 643 OFFCURVE",
"603 643 CURVE SMOOTH",
"636 643 OFFCURVE",
"664 617 OFFCURVE",
"664 584 CURVE SMOOTH",
"664 555 OFFCURVE",
"641 531 OFFCURVE",
"612 526 CURVE",
"452 257 LINE",
"593 116 LINE",
"600 119 OFFCURVE",
"607 120 OFFCURVE",
"615 120 CURVE SMOOTH",
"648 120 OFFCURVE",
"675 93 OFFCURVE",
"675 62 CURVE SMOOTH",
"675 29 OFFCURVE",
"648 2 OFFCURVE",
"615 2 CURVE SMOOTH",
"582 2 OFFCURVE",
"555 29 OFFCURVE",
"555 62 CURVE SMOOTH",
"555 67 OFFCURVE",
"556 71 OFFCURVE",
"557 75 CURVE",
"294 341 LINE",
"294 341 LINE",
"142 92 LINE",
"148 83 OFFCURVE",
"152 72 OFFCURVE",
"152 60 CURVE SMOOTH",
"152 27 OFFCURVE",
"126 1 OFFCURVE",
"93 1 CURVE SMOOTH",
"60 1 OFFCURVE",
"34 27 OFFCURVE",
"34 60 CURVE SMOOTH",
"34 92 OFFCURVE",
"60 119 OFFCURVE",
"93 119 CURVE SMOOTH",
"96 119 LINE",
"252 379 LINE",
"107 528 LINE",
"102 526 OFFCURVE",
"96 525 OFFCURVE",
"90 525 CURVE SMOOTH",
"57 525 OFFCURVE",
"30 551 OFFCURVE",
"30 583 CURVE SMOOTH"
);
},
{
closed = 1;
nodes = (
"68 573 OFFCURVE",
"77 563 OFFCURVE",
"88 563 CURVE SMOOTH",
"100 563 OFFCURVE",
"108 573 OFFCURVE",
"108 585 CURVE SMOOTH",
"108 596 OFFCURVE",
"100 606 OFFCURVE",
"88 606 CURVE SMOOTH",
"77 606 OFFCURVE",
"68 596 OFFCURVE",
"68 585 CURVE SMOOTH"
);
},
{
closed = 1;
nodes = (
"73 52 OFFCURVE",
"82 42 OFFCURVE",
"94 42 CURVE SMOOTH",
"105 42 OFFCURVE",
"115 52 OFFCURVE",
"115 63 CURVE SMOOTH",
"115 75 OFFCURVE",
"105 84 OFFCURVE",
"94 84 CURVE SMOOTH",
"82 84 OFFCURVE",
"73 75 OFFCURVE",
"73 63 CURVE SMOOTH"
);
},
{
closed = 1;
nodes = (
"581 574 OFFCURVE",
"590 565 OFFCURVE",
"602 565 CURVE SMOOTH",
"613 565 OFFCURVE",
"623 574 OFFCURVE",
"623 586 CURVE SMOOTH",
"623 597 OFFCURVE",
"613 607 OFFCURVE",
"602 607 CURVE SMOOTH",
"590 607 OFFCURVE",
"581 597 OFFCURVE",
"581 586 CURVE SMOOTH"
);
},
{
closed = 1;
nodes = (
"593 51 OFFCURVE",
"603 41 OFFCURVE",
"614 41 CURVE SMOOTH",
"625 41 OFFCURVE",
"635 51 OFFCURVE",
"635 62 CURVE SMOOTH",
"635 74 OFFCURVE",
"625 82 OFFCURVE",
"614 82 CURVE SMOOTH",
"603 82 OFFCURVE",
"593 74 OFFCURVE",
"593 62 CURVE SMOOTH"
);
}
);
width = 705;
}
);
unicode = 0041;
},
{
glyphname = B;
lastChange = "2022-09-29 06:23:32 +0000";
layers = (
{
layerId = "B1BCE86B-A7FB-414A-B0E3-B1B1CA0865E7";
paths = (
{
closed = 1;
nodes = (
"30 630 OFFCURVE",
"57 657 OFFCURVE",
"90 657 CURVE SMOOTH",
"111 657 OFFCURVE",
"130 646 OFFCURVE",
"141 629 CURVE",
"141 629 LINE",
"197 630 OFFCURVE",
"424 626 OFFCURVE",
"539 505 CURVE SMOOTH",
"643 396 OFFCURVE",
"653 176 OFFCURVE",
"654 112 CURVE",
"654 112 LINE",
"672 102 OFFCURVE",
"685 83 OFFCURVE",
"685 61 CURVE SMOOTH",
"685 28 OFFCURVE",
"658 1 OFFCURVE",
"625 1 CURVE SMOOTH",
"603 1 OFFCURVE",
"584 13 OFFCURVE",
"574 31 CURVE",
"137 31 LINE",
"131 15 OFFCURVE",
"113 4 OFFCURVE",
"92 4 CURVE SMOOTH",
"59 4 OFFCURVE",
"33 30 OFFCURVE",
"33 63 CURVE SMOOTH",
"33 95 OFFCURVE",
"59 121 OFFCURVE",
"92 121 CURVE SMOOTH",
"114 121 OFFCURVE",
"133 109 OFFCURVE",
"143 92 CURVE",
"575 92 LINE",
"581 102 OFFCURVE",
"590 109 OFFCURVE",
"601 114 CURVE",
"602 173 OFFCURVE",
"597 355 OFFCURVE",
"496 470 CURVE SMOOTH",
"410 568 OFFCURVE",
"201 575 OFFCURVE",
"145 575 CURVE",
"136 554 OFFCURVE",
"115 539 OFFCURVE",
"90 539 CURVE SMOOTH",
"57 539 OFFCURVE",
"30 566 OFFCURVE",
"30 599 CURVE SMOOTH"
);
},
{
closed = 1;
nodes = (
"68 588 OFFCURVE",
"77 579 OFFCURVE",
"89 579 CURVE SMOOTH",
"100 579 OFFCURVE",
"109 588 OFFCURVE",
"109 600 CURVE SMOOTH",
"109 611 OFFCURVE",
"100 621 OFFCURVE",
"89 621 CURVE SMOOTH",
"77 621 OFFCURVE",
"68 611 OFFCURVE",
"68 600 CURVE SMOOTH"
);
},
{
closed = 1;
nodes = (
"72 54 OFFCURVE",
"81 44 OFFCURVE",
"93 44 CURVE SMOOTH",
"104 44 OFFCURVE",
"113 54 OFFCURVE",
"113 65 CURVE SMOOTH",
"113 77 OFFCURVE",
"104 86 OFFCURVE",
"93 86 CURVE SMOOTH",
"81 86 OFFCURVE",
"72 77 OFFCURVE",
"72 65 CURVE SMOOTH"
);
},
{
closed = 1;
nodes = (
"605 50 OFFCURVE",
"613 40 OFFCURVE",
"624 40 CURVE SMOOTH",
"636 40 OFFCURVE",
"645 50 OFFCURVE",
"645 61 CURVE SMOOTH",
"645 73 OFFCURVE",
"636 82 OFFCURVE",
"624 82 CURVE SMOOTH",
"613 82 OFFCURVE",
"605 73 OFFCURVE",
"605 61 CURVE SMOOTH"
);
}
);
width = 715;
}
);
unicode = 0042;
},
{
glyphname = C;
lastChange = "2022-09-29 06:25:51 +0000";
layers = (
{
layerId = "B1BCE86B-A7FB-414A-B0E3-B1B1CA0865E7";
paths = (
{
closed = 1;
nodes = (
"30 593 OFFCURVE",
"57 620 OFFCURVE",
"90 620 CURVE SMOOTH",
"108 620 OFFCURVE",
"123 612 OFFCURVE",
"134 600 CURVE",
"581 600 LINE",
"592 611 OFFCURVE",
"607 618 OFFCURVE",
"624 618 CURVE SMOOTH",
"657 618 OFFCURVE",
"684 591 OFFCURVE",
"684 559 CURVE SMOOTH",
"684 538 OFFCURVE",
"673 520 OFFCURVE",
"657 510 CURVE",
"657 0 LINE",
"588 0 LINE",
"588 512 LINE",
"583 515 OFFCURVE",
"579 519 OFFCURVE",
"576 524 CURVE",
"136 524 LINE",
"134 521 OFFCURVE",
"130 517 OFFCURVE",
"127 515 CURVE",
"127 0 LINE",
"54 0 LINE",
"54 514 LINE",
"39 524 OFFCURVE",
"30 541 OFFCURVE",
"30 561 CURVE SMOOTH"
);
},
{
closed = 1;
nodes = (
"67 550 OFFCURVE",
"76 541 OFFCURVE",
"88 541 CURVE SMOOTH",
"99 541 OFFCURVE",
"108 550 OFFCURVE",
"108 562 CURVE SMOOTH",
"108 574 OFFCURVE",
"99 583 OFFCURVE",
"88 583 CURVE SMOOTH",
"76 583 OFFCURVE",
"67 574 OFFCURVE",
"67 562 CURVE SMOOTH"
);
},
{
closed = 1;
nodes = (
"602 548 OFFCURVE",
"611 539 OFFCURVE",
"622 539 CURVE SMOOTH",
"634 539 OFFCURVE",
"643 548 OFFCURVE",
"643 560 CURVE SMOOTH",
"643 572 OFFCURVE",
"634 581 OFFCURVE",
"622 581 CURVE SMOOTH",
"611 581 OFFCURVE",
"602 572 OFFCURVE",
"602 560 CURVE SMOOTH"
);
}
);
width = 714;
}
);
unicode = 0043;
},
{
glyphname = D;
lastChange = "2022-09-29 06:28:03 +0000";
layers = (
{
layerId = "B1BCE86B-A7FB-414A-B0E3-B1B1CA0865E7";
paths = (
{
closed = 1;
nodes = (
"30 592 OFFCURVE",
"57 619 OFFCURVE",
"90 619 CURVE SMOOTH",
"108 619 OFFCURVE",
"123 611 OFFCURVE",
"134 599 CURVE",
"558 599 LINE",
"569 612 OFFCURVE",
"586 620 OFFCURVE",
"604 620 CURVE SMOOTH",
"637 620 OFFCURVE",
"664 593 OFFCURVE",
"664 561 CURVE SMOOTH",
"664 541 OFFCURVE",
"655 524 OFFCURVE",
"640 514 CURVE",
"640 0 LINE",
"571 0 LINE",
"571 512 LINE",
"566 515 OFFCURVE",
"562 519 OFFCURVE",
"558 523 CURVE",
"136 523 LINE",
"125 510 OFFCURVE",
"109 501 OFFCURVE",
"90 501 CURVE SMOOTH",
"57 501 OFFCURVE",
"30 527 OFFCURVE",
"30 560 CURVE SMOOTH"
);
},
{
closed = 1;
nodes = (
"67 549 OFFCURVE",
"76 540 OFFCURVE",
"88 540 CURVE SMOOTH",
"99 540 OFFCURVE",
"108 549 OFFCURVE",
"108 561 CURVE SMOOTH",
"108 573 OFFCURVE",
"99 582 OFFCURVE",
"88 582 CURVE SMOOTH",
"76 582 OFFCURVE",
"67 573 OFFCURVE",
"67 561 CURVE SMOOTH"
);
},
{
closed = 1;
nodes = (
"582 550 OFFCURVE",
"591 541 OFFCURVE",
"602 541 CURVE SMOOTH",
"614 541 OFFCURVE",
"623 550 OFFCURVE",
"623 562 CURVE SMOOTH",
"623 574 OFFCURVE",
"614 583 OFFCURVE",
"602 583 CURVE SMOOTH",
"591 583 OFFCURVE",
"582 574 OFFCURVE",
"582 562 CURVE SMOOTH"
);
}
);
width = 694;
}
);
unicode = 0044;
},
{
glyphname = E;
lastChange = "2022-09-29 06:34:32 +0000";
layers = (
{
layerId = "B1BCE86B-A7FB-414A-B0E3-B1B1CA0865E7";
paths = (
{
closed = 1;
nodes = (
"30 590 OFFCURVE",
"57 617 OFFCURVE",
"90 617 CURVE SMOOTH",
"108 617 OFFCURVE",
"123 609 OFFCURVE",
"134 597 CURVE",
"559 597 LINE",
"568 610 OFFCURVE",
"586 618 OFFCURVE",
"604 618 CURVE SMOOTH",
"637 618 OFFCURVE",
"664 591 OFFCURVE",
"664 559 CURVE SMOOTH",
"664 538 OFFCURVE",
"653 520 OFFCURVE",
"637 510 CURVE",
"637 0 LINE",
"559 0 LINE",
"559 510 LINE",
"263 510 LINE",
"263 0 LINE",
"193 0 LINE",
"193 510 LINE",
"134 510 LINE",
"120 500 OFFCURVE",
"109 499 OFFCURVE",
"90 499 CURVE SMOOTH",
"57 499 OFFCURVE",
"30 525 OFFCURVE",
"30 558 CURVE SMOOTH"
);
},
{
closed = 1;
nodes = (
"67 547 OFFCURVE",
"76 538 OFFCURVE",
"88 538 CURVE SMOOTH",
"99 538 OFFCURVE",
"108 547 OFFCURVE",
"108 559 CURVE SMOOTH",
"108 571 OFFCURVE",
"99 580 OFFCURVE",
"88 580 CURVE SMOOTH",
"76 580 OFFCURVE",
"67 571 OFFCURVE",
"67 559 CURVE SMOOTH"
);
},
{
closed = 1;
nodes = (
"582 548 OFFCURVE",
"591 539 OFFCURVE",
"602 539 CURVE SMOOTH",
"614 539 OFFCURVE",
"623 548 OFFCURVE",
"623 560 CURVE SMOOTH",
"623 572 OFFCURVE",
"614 581 OFFCURVE",
"602 581 CURVE SMOOTH",
"591 581 OFFCURVE",
"582 572 OFFCURVE",
"582 560 CURVE SMOOTH"
);
}
);
width = 694;
}
);
unicode = 0045;
},
{
glyphname = F;
lastChange = "2022-09-29 06:37:15 +0000";
layers = (
{
layerId = "B1BCE86B-A7FB-414A-B0E3-B1B1CA0865E7";
paths = (
{
closed = 1;
nodes = (
"30 626 OFFCURVE",
"57 652 OFFCURVE",
"90 652 CURVE SMOOTH",
"123 652 OFFCURVE",
"149 626 OFFCURVE",
"149 593 CURVE",
"146 576 LINE",
"299 422 LINE",
"442 579 LINE",
"441 583 OFFCURVE",
"441 588 OFFCURVE",
"441 592 CURVE SMOOTH",
"441 625 OFFCURVE",
"467 651 OFFCURVE",
"500 651 CURVE SMOOTH",
"533 651 OFFCURVE",
"560 625 OFFCURVE",
"560 592 CURVE SMOOTH",
"560 559 OFFCURVE",
"533 532 OFFCURVE",
"500 532 CURVE SMOOTH",
"492 532 OFFCURVE",
"484 534 OFFCURVE",
"477 537 CURVE",
"335 386 LINE",
"663 56 LINE",
"663 0 LINE",
"50 0 LINE",
"50 56 LINE",
"586 56 LINE",
"107 538 LINE",
"102 536 OFFCURVE",
"96 535 OFFCURVE",
"90 535 CURVE SMOOTH",
"57 535 OFFCURVE",
"30 561 OFFCURVE",
"30 593 CURVE SMOOTH"
);
},
{
closed = 1;
nodes = (
"68 583 OFFCURVE",
"76 573 OFFCURVE",
"87 573 CURVE SMOOTH",
"100 573 OFFCURVE",
"108 583 OFFCURVE",
"108 595 CURVE SMOOTH",
"108 606 OFFCURVE",
"100 616 OFFCURVE",
"87 616 CURVE SMOOTH",
"76 616 OFFCURVE",
"68 606 OFFCURVE",
"68 595 CURVE SMOOTH"
);
},
{
closed = 1;
nodes = (
"478 582 OFFCURVE",
"487 572 OFFCURVE",
"499 572 CURVE SMOOTH",
"510 572 OFFCURVE",
"519 582 OFFCURVE",
"519 593 CURVE SMOOTH",
"519 605 OFFCURVE",
"510 614 OFFCURVE",
"499 614 CURVE SMOOTH",
"487 614 OFFCURVE",
"478 605 OFFCURVE",
"478 593 CURVE SMOOTH"
);
}
);
width = 693;
}
);
unicode = 0046;
},
{
glyphname = G;
lastChange = "2022-09-29 08:13:04 +0000";
layers = (
{
layerId = "B1BCE86B-A7FB-414A-B0E3-B1B1CA0865E7";
paths = (
{
closed = 1;
nodes = (
"30 94 OFFCURVE",
"57 120 OFFCURVE",
"90 120 CURVE",
"96 120 LINE",
"405 434 LINE",
"405 544 LINE",
"390 554 OFFCURVE",
"381 572 OFFCURVE",
"381 591 CURVE SMOOTH",
"381 624 OFFCURVE",
"407 650 OFFCURVE",
"440 650 CURVE SMOOTH",
"473 650 OFFCURVE",
"501 624 OFFCURVE",
"501 591 CURVE SMOOTH",
"501 571 OFFCURVE",
"490 553 OFFCURVE",
"474 542 CURVE",
"474 110 LINE",
"490 99 OFFCURVE",
"501 82 OFFCURVE",
"501 61 CURVE SMOOTH",
"501 28 OFFCURVE",
"473 1 OFFCURVE",
"440 1 CURVE SMOOTH",
"407 1 OFFCURVE",
"381 28 OFFCURVE",
"381 61 CURVE SMOOTH",
"381 81 OFFCURVE",
"390 98 OFFCURVE",
"405 109 CURVE",
"405 334 LINE",
"148 75 LINE",
"149 70 OFFCURVE",
"150 66 OFFCURVE",
"150 61 CURVE SMOOTH",
"150 29 OFFCURVE",
"123 2 OFFCURVE",
"90 2 CURVE SMOOTH",
"57 2 OFFCURVE",
"30 29 OFFCURVE",
"30 61 CURVE SMOOTH"
);
},
{
closed = 1;
nodes = (
"69 50 OFFCURVE",
"77 41 OFFCURVE",
"90 41 CURVE SMOOTH",
"101 41 OFFCURVE",
"109 50 OFFCURVE",
"109 62 CURVE SMOOTH",
"109 73 OFFCURVE",
"101 83 OFFCURVE",
"90 83 CURVE SMOOTH",
"77 83 OFFCURVE",
"69 73 OFFCURVE",
"69 62 CURVE SMOOTH"
);
},
{
closed = 1;
nodes = (
"418 581 OFFCURVE",
"427 572 OFFCURVE",
"439 572 CURVE SMOOTH",
"450 572 OFFCURVE",
"460 581 OFFCURVE",
"460 593 CURVE SMOOTH",
"460 604 OFFCURVE",
"450 614 OFFCURVE",
"439 614 CURVE SMOOTH",
"427 614 OFFCURVE",
"418 604 OFFCURVE",
"418 593 CURVE SMOOTH"
);
},
{
closed = 1;
nodes = (
"419 50 OFFCURVE",
"428 41 OFFCURVE",
"440 41 CURVE SMOOTH",
"451 41 OFFCURVE",
"460 50 OFFCURVE",
"460 62 CURVE SMOOTH",
"460 73 OFFCURVE",
"451 83 OFFCURVE",
"440 83 CURVE SMOOTH",
"428 83 OFFCURVE",
"419 73 OFFCURVE",
"419 62 CURVE SMOOTH"
);
}
);
width = 531;
}
);
unicode = 0047;
},
{
glyphname = H;
lastChange = "2022-09-29 08:13:59 +0000";
layers = (
{
layerId = "B1BCE86B-A7FB-414A-B0E3-B1B1CA0865E7";
paths = (
{
closed = 1;
nodes = (
"30 590 OFFCURVE",
"57 617 OFFCURVE",
"90 617 CURVE SMOOTH",
"108 617 OFFCURVE",
"123 609 OFFCURVE",
"134 597 CURVE",
"559 597 LINE",
"568 610 OFFCURVE",
"586 618 OFFCURVE",
"604 618 CURVE SMOOTH",
"637 618 OFFCURVE",
"664 591 OFFCURVE",
"664 559 CURVE SMOOTH",
"664 538 OFFCURVE",
"653 520 OFFCURVE",
"637 510 CURVE",
"637 0 LINE",
"559 0 LINE",
"559 510 LINE",
"263 510 LINE",
"263 0 LINE",
"193 0 LINE",
"193 510 LINE",
"134 510 LINE",
"120 500 OFFCURVE",
"109 499 OFFCURVE",
"90 499 CURVE SMOOTH",
"57 499 OFFCURVE",
"30 525 OFFCURVE",
"30 558 CURVE SMOOTH"
);
},
{
closed = 1;
nodes = (
"67 547 OFFCURVE",
"76 538 OFFCURVE",
"88 538 CURVE SMOOTH",
"99 538 OFFCURVE",
"108 547 OFFCURVE",
"108 559 CURVE SMOOTH",
"108 571 OFFCURVE",
"99 580 OFFCURVE",
"88 580 CURVE SMOOTH",
"76 580 OFFCURVE",
"67 571 OFFCURVE",
"67 559 CURVE SMOOTH"
);
},
{
closed = 1;
nodes = (
"582 548 OFFCURVE",
"591 539 OFFCURVE",
"602 539 CURVE SMOOTH",
"614 539 OFFCURVE",
"623 548 OFFCURVE",
"623 560 CURVE SMOOTH",
"623 572 OFFCURVE",
"614 581 OFFCURVE",
"602 581 CURVE SMOOTH",
"591 581 OFFCURVE",
"582 572 OFFCURVE",
"582 560 CURVE SMOOTH"
);
}
);
width = 694;
}
);
unicode = 0048;
},
{
glyphname = I;
lastChange = "2022-09-29 08:17:56 +0000";
layers = (
{
layerId = "B1BCE86B-A7FB-414A-B0E3-B1B1CA0865E7";
paths = (
{
closed = 1;
nodes = (
"30 93 OFFCURVE",
"57 119 OFFCURVE",
"90 119 CURVE",
"90 119 LINE",
"307 569 LINE",
"302 577 OFFCURVE",
"300 587 OFFCURVE",
"300 596 CURVE SMOOTH",
"300 629 OFFCURVE",
"327 655 OFFCURVE",
"360 655 CURVE SMOOTH",
"393 655 OFFCURVE",
"419 629 OFFCURVE",
"419 596 CURVE SMOOTH",
"419 586 OFFCURVE",
"416 576 OFFCURVE",
"411 567 CURVE",
"630 118 LINE",
"630 118 LINE",
"661 117 OFFCURVE",
"687 92 OFFCURVE",
"687 60 CURVE SMOOTH",
"687 28 OFFCURVE",
"660 1 OFFCURVE",
"627 1 CURVE SMOOTH",
"605 1 OFFCURVE",
"586 13 OFFCURVE",
"576 31 CURVE",
"142 31 LINE",
"132 13 OFFCURVE",
"112 1 OFFCURVE",
"90 1 CURVE SMOOTH",
"57 1 OFFCURVE",
"30 28 OFFCURVE",
"30 60 CURVE SMOOTH"
);
},
{
closed = 1;
nodes = (
"70 51 OFFCURVE",
"79 42 OFFCURVE",
"91 42 CURVE SMOOTH",
"102 42 OFFCURVE",
"111 51 OFFCURVE",
"111 63 CURVE SMOOTH",
"111 75 OFFCURVE",
"102 84 OFFCURVE",
"91 84 CURVE SMOOTH",
"79 84 OFFCURVE",
"70 75 OFFCURVE",
"70 63 CURVE SMOOTH"
);
},
{
closed = 1;
nodes = (
"140 93 OFFCURVE",
"140 93 OFFCURVE",
"141 92 CURVE",
"577 92 LINE",
"580 96 LINE",
"365 537 LINE",
"360 537 LINE SMOOTH",
"357 537 OFFCURVE",
"355 537 OFFCURVE",
"352 538 CURVE",
"139 93 LINE"
);
},
{
closed = 1;
nodes = (
"337 586 OFFCURVE",
"346 577 OFFCURVE",
"358 577 CURVE SMOOTH",
"369 577 OFFCURVE",
"378 586 OFFCURVE",
"378 598 CURVE SMOOTH",
"378 609 OFFCURVE",
"369 619 OFFCURVE",
"358 619 CURVE SMOOTH",
"346 619 OFFCURVE",
"337 609 OFFCURVE",
"337 598 CURVE SMOOTH"
);
},
{
closed = 1;
nodes = (
"606 49 OFFCURVE",
"615 36 OFFCURVE",
"627 36 CURVE SMOOTH",
"638 36 OFFCURVE",
"647 49 OFFCURVE",
"647 60 CURVE SMOOTH",
"647 72 OFFCURVE",
"638 81 OFFCURVE",
"627 84 CURVE",
"615 84 OFFCURVE",
"606 72 OFFCURVE",
"606 60 CURVE SMOOTH"
);
}
);
width = 717;
}
);
unicode = 0049;
},
{
glyphname = J;
lastChange = "2022-09-29 08:18:30 +0000";
layers = (
{
layerId = "B1BCE86B-A7FB-414A-B0E3-B1B1CA0865E7";
paths = (
{
closed = 1;
nodes = (
"30 93 OFFCURVE",
"57 119 OFFCURVE",
"90 119 CURVE",
"90 119 LINE",
"307 569 LINE",
"302 577 OFFCURVE",
"300 587 OFFCURVE",
"300 596 CURVE SMOOTH",
"300 629 OFFCURVE",
"327 655 OFFCURVE",
"360 655 CURVE SMOOTH",
"393 655 OFFCURVE",
"419 629 OFFCURVE",
"419 596 CURVE SMOOTH",
"419 586 OFFCURVE",
"416 576 OFFCURVE",
"411 567 CURVE",
"630 118 LINE",
"630 118 LINE",
"661 117 OFFCURVE",
"687 92 OFFCURVE",
"687 60 CURVE SMOOTH",
"687 28 OFFCURVE",
"660 1 OFFCURVE",
"627 1 CURVE SMOOTH",
"605 1 OFFCURVE",
"586 13 OFFCURVE",
"576 31 CURVE",
"142 31 LINE",
"132 13 OFFCURVE",
"112 1 OFFCURVE",
"90 1 CURVE SMOOTH",
"57 1 OFFCURVE",
"30 28 OFFCURVE",
"30 60 CURVE SMOOTH"
);
},
{
closed = 1;
nodes = (
"70 51 OFFCURVE",
"79 42 OFFCURVE",
"91 42 CURVE SMOOTH",
"102 42 OFFCURVE",
"111 51 OFFCURVE",
"111 63 CURVE SMOOTH",
"111 75 OFFCURVE",
"102 84 OFFCURVE",
"91 84 CURVE SMOOTH",
"79 84 OFFCURVE",
"70 75 OFFCURVE",
"70 63 CURVE SMOOTH"
);
},
{
closed = 1;
nodes = (
"140 93 OFFCURVE",
"140 93 OFFCURVE",
"141 92 CURVE",
"577 92 LINE",
"580 96 LINE",
"365 537 LINE",
"360 537 LINE SMOOTH",
"357 537 OFFCURVE",
"355 537 OFFCURVE",
"352 538 CURVE",
"139 93 LINE"
);
},
{
closed = 1;
nodes = (
"337 586 OFFCURVE",
"346 577 OFFCURVE",
"358 577 CURVE SMOOTH",
"369 577 OFFCURVE",
"378 586 OFFCURVE",
"378 598 CURVE SMOOTH",
"378 609 OFFCURVE",
"369 619 OFFCURVE",
"358 619 CURVE SMOOTH",
"346 619 OFFCURVE",
"337 609 OFFCURVE",
"337 598 CURVE SMOOTH"
);
},
{
closed = 1;
nodes = (
"606 49 OFFCURVE",
"615 36 OFFCURVE",
"627 36 CURVE SMOOTH",
"638 36 OFFCURVE",
"647 49 OFFCURVE",
"647 60 CURVE SMOOTH",
"647 72 OFFCURVE",
"638 81 OFFCURVE",
"627 84 CURVE",
"615 84 OFFCURVE",
"606 72 OFFCURVE",
"606 60 CURVE SMOOTH"
);
}
);
width = 717;
}
);
unicode = 004A;
},
{
glyphname = K;
lastChange = "2022-09-29 08:22:24 +0000";
layers = (
{
layerId = "B1BCE86B-A7FB-414A-B0E3-B1B1CA0865E7";
paths = (
{
closed = 1;
nodes = (
"30 152 OFFCURVE",
"57 178 OFFCURVE",
"90 178 CURVE SMOOTH",
"123 178 OFFCURVE",
"150 152 OFFCURVE",
"150 120 CURVE",
"150 120 LINE",
"197 87 OFFCURVE",
"258 55 OFFCURVE",
"326 55 CURVE SMOOTH",
"414 55 OFFCURVE",
"554 130 OFFCURVE",
"554 330 CURVE SMOOTH",
"554 530 OFFCURVE",
"414 600 OFFCURVE",
"326 600 CURVE SMOOTH",
"258 600 OFFCURVE",
"181 564 OFFCURVE",
"149 532 CURVE SMOOTH",
"149 532 OFFCURVE",
"149 532 OFFCURVE",
"149 532 CURVE",
"149 528 LINE",
"149 495 OFFCURVE",
"122 469 OFFCURVE",
"89 469 CURVE SMOOTH",
"56 469 OFFCURVE",
"30 495 OFFCURVE",
"30 528 CURVE SMOOTH",
"30 560 OFFCURVE",
"56 587 OFFCURVE",
"89 587 CURVE SMOOTH",
"100 587 OFFCURVE",
"110 584 OFFCURVE",
"118 579 CURVE",
"141 603 OFFCURVE",
"208 657 OFFCURVE",
"326 657 CURVE SMOOTH",
"476 657 OFFCURVE",
"612 520 OFFCURVE",
"612 330 CURVE SMOOTH",
"612 140 OFFCURVE",
"476 1 OFFCURVE",
"326 1 CURVE SMOOTH",
"215 1 OFFCURVE",
"151 47 OFFCURVE",
"124 71 CURVE",
"114 64 OFFCURVE",
"103 60 OFFCURVE",
"90 60 CURVE SMOOTH",
"57 60 OFFCURVE",
"30 87 OFFCURVE",
"30 119 CURVE SMOOTH"
);
},
{
closed = 1;
nodes = (
"67 518 OFFCURVE",
"76 508 OFFCURVE",
"88 508 CURVE SMOOTH",
"99 508 OFFCURVE",
"108 518 OFFCURVE",
"108 529 CURVE SMOOTH",
"108 541 OFFCURVE",
"99 550 OFFCURVE",
"88 550 CURVE SMOOTH",
"76 550 OFFCURVE",
"67 541 OFFCURVE",
"67 529 CURVE SMOOTH"
);
},
{
closed = 1;
nodes = (
"70 110 OFFCURVE",
"79 101 OFFCURVE",
"91 101 CURVE SMOOTH",
"102 101 OFFCURVE",
"111 110 OFFCURVE",
"111 122 CURVE SMOOTH",
"111 133 OFFCURVE",
"102 143 OFFCURVE",
"91 143 CURVE SMOOTH",
"79 143 OFFCURVE",
"70 133 OFFCURVE",
"70 122 CURVE SMOOTH"
);
}
);
width = 642;
}
);
unicode = 004B;
},
{
glyphname = L;
lastChange = "2022-09-29 08:30:37 +0000";
layers = (
{
layerId = "B1BCE86B-A7FB-414A-B0E3-B1B1CA0865E7";
paths = (
{
closed = 1;
nodes = (
"30 367 OFFCURVE",
"56 393 OFFCURVE",
"89 393 CURVE SMOOTH",
"94 393 OFFCURVE",
"99 392 OFFCURVE",
"104 391 CURVE",
"104 391 LINE",
"275 572 LINE",
"272 579 OFFCURVE",
"271 586 OFFCURVE",
"271 593 CURVE SMOOTH",
"271 625 OFFCURVE",
"298 651 OFFCURVE",
"331 651 CURVE SMOOTH",
"364 651 OFFCURVE",
"391 625 OFFCURVE",
"391 593 CURVE SMOOTH",
"391 560 OFFCURVE",
"364 534 OFFCURVE",
"331 534 CURVE SMOOTH",
"326 534 OFFCURVE",
"320 535 OFFCURVE",
"315 536 CURVE",
"154 364 LINE",
"447 364 LINE",
"447 364 LINE",
"457 381 OFFCURVE",
"476 392 OFFCURVE",
"499 392 CURVE SMOOTH",
"532 392 OFFCURVE",
"559 367 OFFCURVE",
"559 334 CURVE SMOOTH",
"559 302 OFFCURVE",
"532 274 OFFCURVE",
"499 274 CURVE SMOOTH",
"494 274 OFFCURVE",
"489 275 OFFCURVE",
"484 276 CURVE",
"225 1 LINE",
"185 38 LINE",
"435 304 LINE",
"140 304 LINE",
"130 287 OFFCURVE",
"111 275 OFFCURVE",
"89 275 CURVE SMOOTH",
"56 275 OFFCURVE",
"30 302 OFFCURVE",
"30 334 CURVE SMOOTH"
);
},
{
closed = 1;
nodes = (
"67 324 OFFCURVE",
"76 315 OFFCURVE",
"87 315 CURVE SMOOTH",
"99 315 OFFCURVE",
"108 324 OFFCURVE",
"108 336 CURVE SMOOTH",
"108 347 OFFCURVE",
"99 357 OFFCURVE",
"87 357 CURVE SMOOTH",
"76 357 OFFCURVE",
"67 347 OFFCURVE",
"67 336 CURVE SMOOTH"
);
},
{
closed = 1;
nodes = (
"308 582 OFFCURVE",
"318 573 OFFCURVE",
"329 573 CURVE SMOOTH",
"340 573 OFFCURVE",
"350 582 OFFCURVE",
"350 594 CURVE SMOOTH",
"350 605 OFFCURVE",
"340 615 OFFCURVE",
"329 615 CURVE SMOOTH",
"318 615 OFFCURVE",
"308 605 OFFCURVE",
"308 594 CURVE SMOOTH"
);
},
{
closed = 1;
nodes = (
"478 322 OFFCURVE",
"487 313 OFFCURVE",
"499 313 CURVE SMOOTH",
"510 313 OFFCURVE",
"519 322 OFFCURVE",
"519 334 CURVE SMOOTH",
"519 345 OFFCURVE",
"510 355 OFFCURVE",
"499 355 CURVE SMOOTH",
"487 355 OFFCURVE",
"478 345 OFFCURVE",
"478 334 CURVE SMOOTH"
);
}
);
width = 589;
}
);
unicode = 004C;
},
{
glyphname = M;
lastChange = "2022-09-29 08:34:45 +0000";
layers = (
{
layerId = "B1BCE86B-A7FB-414A-B0E3-B1B1CA0865E7";
paths = (
{
closed = 1;
nodes = (
"30 626 OFFCURVE",
"57 653 OFFCURVE",
"90 653 CURVE SMOOTH",
"123 653 OFFCURVE",
"149 626 OFFCURVE",
"149 594 CURVE",
"146 577 LINE",
"297 425 LINE",
"384 566 LINE",
"384 566 LINE",
"379 574 OFFCURVE",
"377 583 OFFCURVE",
"377 593 CURVE SMOOTH",
"377 626 OFFCURVE",
"404 652 OFFCURVE",
"437 652 CURVE SMOOTH",
"470 652 OFFCURVE",
"497 626 OFFCURVE",
"497 593 CURVE SMOOTH",
"497 569 OFFCURVE",
"483 549 OFFCURVE",
"463 540 CURVE",
"463 113 LINE",
"483 103 OFFCURVE",
"496 83 OFFCURVE",
"496 60 CURVE SMOOTH",
"496 27 OFFCURVE",
"470 1 OFFCURVE",
"437 1 CURVE SMOOTH",
"404 1 OFFCURVE",
"377 27 OFFCURVE",
"377 60 CURVE SMOOTH",
"377 82 OFFCURVE",
"390 101 OFFCURVE",
"408 112 CURVE",
"408 497 LINE",
"105 9 LINE",
"57 39 LINE",
"267 378 LINE",
"108 538 LINE",
"102 536 OFFCURVE",
"96 535 OFFCURVE",
"90 535 CURVE SMOOTH",
"57 535 OFFCURVE",
"30 561 OFFCURVE",
"30 594 CURVE SMOOTH"
);
},
{
closed = 1;
nodes = (
"67 583 OFFCURVE",
"76 574 OFFCURVE",
"88 574 CURVE SMOOTH",
"99 574 OFFCURVE",
"108 583 OFFCURVE",
"108 595 CURVE SMOOTH",
"108 607 OFFCURVE",
"99 616 OFFCURVE",
"88 616 CURVE SMOOTH",
"76 616 OFFCURVE",
"67 607 OFFCURVE",
"67 595 CURVE SMOOTH"
);
},
{
closed = 1;
nodes = (
"415 583 OFFCURVE",
"424 573 OFFCURVE",
"435 573 CURVE SMOOTH",
"447 573 OFFCURVE",
"456 583 OFFCURVE",
"456 594 CURVE SMOOTH",
"456 606 OFFCURVE",
"447 615 OFFCURVE",
"435 615 CURVE SMOOTH",
"424 615 OFFCURVE",
"415 606 OFFCURVE",
"415 594 CURVE SMOOTH"
);
},
{
closed = 1;
nodes = (
"417 51 OFFCURVE",
"426 41 OFFCURVE",
"437 41 CURVE SMOOTH",
"449 41 OFFCURVE",
"458 51 OFFCURVE",
"458 62 CURVE SMOOTH",
"458 74 OFFCURVE",
"449 83 OFFCURVE",
"437 83 CURVE SMOOTH",
"426 83 OFFCURVE",
"417 74 OFFCURVE",
"417 62 CURVE SMOOTH"
);
}
);
width = 527;
}
);
unicode = 004D;
},
{
glyphname = N;
lastChange = "2022-09-29 08:39:04 +0000";
layers = (
{
layerId = "B1BCE86B-A7FB-414A-B0E3-B1B1CA0865E7";
paths = (
{
closed = 1;
nodes = (
"30 615 OFFCURVE",
"57 642 OFFCURVE",
"90 642 CURVE SMOOTH",
"123 642 OFFCURVE",
"149 615 OFFCURVE",
"149 583 CURVE",
"146 566 LINE",
"389 324 LINE",
"151 76 LINE",
"152 71 OFFCURVE",
"153 65 OFFCURVE",
"153 60 CURVE SMOOTH",
"153 27 OFFCURVE",
"126 1 OFFCURVE",
"93 1 CURVE SMOOTH",
"60 1 OFFCURVE",
"33 27 OFFCURVE",
"33 60 CURVE SMOOTH",
"33 92 OFFCURVE",
"60 118 OFFCURVE",
"93 118 CURVE SMOOTH",
"100 118 OFFCURVE",
"106 117 OFFCURVE",
"113 115 CURVE",
"311 322 LINE",
"108 527 LINE",
"102 525 OFFCURVE",
"96 524 OFFCURVE",
"90 524 CURVE SMOOTH",
"57 524 OFFCURVE",
"30 550 OFFCURVE",
"30 583 CURVE SMOOTH"
);
},
{
closed = 1;
nodes = (
"67 572 OFFCURVE",
"76 563 OFFCURVE",
"88 563 CURVE SMOOTH",
"99 563 OFFCURVE",
"108 572 OFFCURVE",
"108 584 CURVE SMOOTH",
"108 596 OFFCURVE",
"99 605 OFFCURVE",
"88 605 CURVE SMOOTH",
"76 605 OFFCURVE",
"67 596 OFFCURVE",
"67 584 CURVE SMOOTH"
);
},
{
closed = 1;
nodes = (
"73 50 OFFCURVE",
"82 41 OFFCURVE",
"94 41 CURVE SMOOTH",
"105 41 OFFCURVE",
"114 50 OFFCURVE",
"114 62 CURVE SMOOTH",
"114 74 OFFCURVE",
"105 83 OFFCURVE",
"94 83 CURVE SMOOTH",
"82 83 OFFCURVE",
"73 74 OFFCURVE",
"73 62 CURVE SMOOTH"
);
}
);
width = 419;
}
);
unicode = 004E;
},
{
glyphname = O;
lastChange = "2022-09-29 08:45:26 +0000";
layers = (
{
layerId = "B1BCE86B-A7FB-414A-B0E3-B1B1CA0865E7";
paths = (
{
closed = 1;
nodes = (
"30 623 OFFCURVE",
"57 650 OFFCURVE",
"90 650 CURVE SMOOTH",
"123 650 OFFCURVE",
"149 623 OFFCURVE",
"149 591 CURVE",
"148 583 LINE",
"356 435 LINE",
"397 552 LINE",
"384 563 OFFCURVE",
"376 579 OFFCURVE",
"376 596 CURVE SMOOTH",
"376 629 OFFCURVE",
"403 655 OFFCURVE",
"436 655 CURVE SMOOTH",
"469 655 OFFCURVE",
"496 629 OFFCURVE",
"496 596 CURVE SMOOTH",
"496 569 OFFCURVE",
"476 545 OFFCURVE",
"450 539 CURVE",
"394 381 LINE",
"122 1 LINE",
"77 33 LINE",
"330 387 LINE",
"117 538 LINE",
"109 534 OFFCURVE",
"100 532 OFFCURVE",
"90 532 CURVE SMOOTH",
"57 532 OFFCURVE",
"30 558 OFFCURVE",
"30 591 CURVE SMOOTH"
);
},
{
closed = 1;
nodes = (
"67 580 OFFCURVE",
"76 571 OFFCURVE",
"88 571 CURVE SMOOTH",
"99 571 OFFCURVE",
"108 580 OFFCURVE",
"108 592 CURVE SMOOTH",
"108 604 OFFCURVE",
"99 613 OFFCURVE",
"88 613 CURVE SMOOTH",
"76 613 OFFCURVE",
"67 604 OFFCURVE",
"67 592 CURVE SMOOTH"
);
},
{
closed = 1;
nodes = (
"413 586 OFFCURVE",
"423 576 OFFCURVE",
"434 576 CURVE SMOOTH",
"445 576 OFFCURVE",
"455 586 OFFCURVE",
"455 597 CURVE SMOOTH",
"455 609 OFFCURVE",
"445 619 OFFCURVE",
"434 619 CURVE SMOOTH",
"423 619 OFFCURVE",
"413 609 OFFCURVE",
"413 597 CURVE SMOOTH"
);
}
);
width = 526;
}
);
unicode = 004F;
},
{
glyphname = P;
lastChange = "2022-09-29 08:46:28 +0000";
layers = (
{
layerId = "B1BCE86B-A7FB-414A-B0E3-B1B1CA0865E7";
paths = (
{
closed = 1;
nodes = (
"30 563 OFFCURVE",
"119 658 OFFCURVE",
"199 658 CURVE SMOOTH",
"279 658 OFFCURVE",
"353 589 OFFCURVE",
"353 434 CURVE SMOOTH",
"353 343 OFFCURVE",
"266 161 OFFCURVE",
"239 103 CURVE SMOOTH",
"239 103 LINE",
"250 92 OFFCURVE",
"257 77 OFFCURVE",
"257 60 CURVE SMOOTH",
"257 28 OFFCURVE",
"231 1 OFFCURVE",
"198 1 CURVE SMOOTH",
"165 1 OFFCURVE",
"139 28 OFFCURVE",
"139 60 CURVE SMOOTH",
"139 89 OFFCURVE",
"159 113 OFFCURVE",
"187 118 CURVE",
"202 149 OFFCURVE",
"301 353 OFFCURVE",
"301 427 CURVE SMOOTH",
"301 492 OFFCURVE",
"279 589 OFFCURVE",
"199 591 CURVE SMOOTH",
"119 593 OFFCURVE",
"89 526 OFFCURVE",
"89 494 CURVE SMOOTH",
"89 461 OFFCURVE",
"106 403 OFFCURVE",
"146 403 CURVE SMOOTH",
"186 403 OFFCURVE",
"179 437 OFFCURVE",
"179 453 CURVE SMOOTH",
"179 472 OFFCURVE",
"197 476 OFFCURVE",
"207 476 CURVE SMOOTH",
"215 476 OFFCURVE",
"235 476 OFFCURVE",
"235 451 CURVE SMOOTH",
"235 388 OFFCURVE",
"196 337 OFFCURVE",
"146 337 CURVE SMOOTH",
"96 337 OFFCURVE",
"30 417 OFFCURVE",
"30 492 CURVE SMOOTH"
);
},
{
closed = 1;
nodes = (
"177 49 OFFCURVE",
"186 40 OFFCURVE",
"197 40 CURVE SMOOTH",
"209 40 OFFCURVE",
"218 49 OFFCURVE",
"218 61 CURVE SMOOTH",
"218 73 OFFCURVE",
"209 82 OFFCURVE",
"197 82 CURVE SMOOTH",
"186 82 OFFCURVE",
"177 73 OFFCURVE",
"177 61 CURVE SMOOTH"
);
}
);
width = 383;
}
);
unicode = 0050;
},
{
glyphname = Q;
lastChange = "2022-09-29 08:48:55 +0000";
layers = (
{
layerId = "B1BCE86B-A7FB-414A-B0E3-B1B1CA0865E7";
paths = (
{
closed = 1;
nodes = (
"30 616 OFFCURVE",
"56 642 OFFCURVE",
"89 642 CURVE",
"126 630 LINE",
"126 630 LINE",
"156 641 OFFCURVE",
"221 663 OFFCURVE",
"258 656 CURVE SMOOTH",
"304 647 OFFCURVE",
"402 585 OFFCURVE",
"442 559 CURVE",
"442 559 LINE",
"450 562 OFFCURVE",
"458 564 OFFCURVE",
"467 564 CURVE SMOOTH",
"500 564 OFFCURVE",
"527 537 OFFCURVE",
"527 505 CURVE SMOOTH",
"527 472 OFFCURVE",
"500 446 OFFCURVE",
"467 446 CURVE SMOOTH",
"434 446 OFFCURVE",
"408 472 OFFCURVE",
"408 505 CURVE SMOOTH",
"408 511 OFFCURVE",
"409 517 OFFCURVE",
"411 522 CURVE",
"299 581 LINE",
"299 112 LINE",
"318 102 OFFCURVE",
"331 83 OFFCURVE",
"331 60 CURVE SMOOTH",
"331 28 OFFCURVE",
"304 1 OFFCURVE",
"271 1 CURVE SMOOTH",
"238 1 OFFCURVE",
"212 28 OFFCURVE",
"212 60 CURVE SMOOTH",
"212 83 OFFCURVE",
"225 103 OFFCURVE",
"244 113 CURVE",
"244 591 LINE",
"210 588 OFFCURVE",
"168 575 OFFCURVE",
"147 568 CURVE",
"140 542 OFFCURVE",
"117 524 OFFCURVE",
"89 524 CURVE SMOOTH",
"56 524 OFFCURVE",
"30 550 OFFCURVE",
"30 583 CURVE SMOOTH"
);
},
{
closed = 1;
nodes = (
"67 573 OFFCURVE",
"76 563 OFFCURVE",
"88 563 CURVE SMOOTH",
"99 563 OFFCURVE",
"108 573 OFFCURVE",
"108 584 CURVE SMOOTH",
"108 596 OFFCURVE",
"99 605 OFFCURVE",
"88 605 CURVE SMOOTH",
"76 605 OFFCURVE",
"67 596 OFFCURVE",
"67 584 CURVE SMOOTH"
);
},
{
closed = 1;
nodes = (
"252 51 OFFCURVE",
"261 42 OFFCURVE",
"272 42 CURVE SMOOTH",
"284 42 OFFCURVE",
"293 51 OFFCURVE",
"293 63 CURVE SMOOTH",
"293 74 OFFCURVE",
"284 84 OFFCURVE",
"272 84 CURVE SMOOTH",
"261 84 OFFCURVE",
"252 74 OFFCURVE",
"252 63 CURVE SMOOTH"
);
},
{
closed = 1;
nodes = (
"445 494 OFFCURVE",
"454 485 OFFCURVE",
"466 485 CURVE SMOOTH",
"477 485 OFFCURVE",
"486 494 OFFCURVE",
"486 506 CURVE SMOOTH",
"486 518 OFFCURVE",
"477 527 OFFCURVE",
"466 527 CURVE SMOOTH",
"454 527 OFFCURVE",
"445 518 OFFCURVE",
"445 506 CURVE SMOOTH"
);
}
);
width = 557;
}
);
unicode = 0051;
},
{
glyphname = R;
lastChange = "2022-09-29 08:51:52 +0000";
layers = (
{
layerId = "B1BCE86B-A7FB-414A-B0E3-B1B1CA0865E7";
paths = (
{
closed = 1;
nodes = (
"30 597 OFFCURVE",
"57 624 OFFCURVE",
"90 624 CURVE SMOOTH",
"113 624 OFFCURVE",
"132 611 OFFCURVE",
"142 593 CURVE",
"142 593 LINE",
"673 593 LINE",
"673 538 LINE",
"673 538 LINE",
"468 1 LINE",
"417 20 LINE",
"614 538 LINE",
"143 538 LINE",
"133 519 OFFCURVE",
"113 506 OFFCURVE",
"90 506 CURVE SMOOTH",
"57 506 OFFCURVE",
"30 532 OFFCURVE",
"30 565 CURVE SMOOTH"
);
},
{
closed = 1;
nodes = (
"67 554 OFFCURVE",
"76 545 OFFCURVE",
"88 545 CURVE SMOOTH",
"99 545 OFFCURVE",
"108 554 OFFCURVE",
"108 566 CURVE SMOOTH",
"108 578 OFFCURVE",
"99 587 OFFCURVE",
"88 587 CURVE SMOOTH",
"76 587 OFFCURVE",
"67 578 OFFCURVE",
"67 566 CURVE SMOOTH"
);
}
);
width = 703;
}
);
unicode = 0052;
},
{
glyphname = S;
lastChange = "2022-09-30 16:40:36 +0000";
layers = (
{
layerId = "B1BCE86B-A7FB-414A-B0E3-B1B1CA0865E7";
paths = (
{
closed = 1;
nodes = (
"28 493 OFFCURVE",
"47 531 OFFCURVE",
"70 552 CURVE SMOOTH",
"70 552 LINE",
"62 562 OFFCURVE",
"58 574 OFFCURVE",
"58 587 CURVE SMOOTH",
"58 619 OFFCURVE",
"85 646 OFFCURVE",
"118 646 CURVE SMOOTH",
"139 646 OFFCURVE",
"157 635 OFFCURVE",
"168 619 CURVE",
"168 619 LINE",
"428 619 LINE",
"439 634 OFFCURVE",
"459 644 OFFCURVE",
"479 644 CURVE SMOOTH",
"512 644 OFFCURVE",
"539 617 OFFCURVE",
"539 585 CURVE SMOOTH",
"539 572 OFFCURVE",
"535 561 OFFCURVE",
"527 550 CURVE",
"527 550 LINE",
"543 529 OFFCURVE",
"570 482 OFFCURVE",
"569 415 CURVE SMOOTH",
"568 354 OFFCURVE",
"571 349 OFFCURVE",
"570 270 CURVE SMOOTH",
"569 164 OFFCURVE",
"453 3 OFFCURVE",
"363 3 CURVE SMOOTH",
"243 3 LINE SMOOTH",
"153 3 OFFCURVE",
"37 158 OFFCURVE",
"32 270 CURVE SMOOTH",
"28 356 OFFCURVE",
"31 362 OFFCURVE",
"30 415 CURVE SMOOTH"
);
},
{
closed = 1;
nodes = (
"95 395 OFFCURVE",
"95 341 OFFCURVE",
"97 273 CURVE SMOOTH",
"100 165 OFFCURVE",
"194 70 OFFCURVE",
"248 69 CURVE SMOOTH",
"300 68 OFFCURVE",
"311 68 OFFCURVE",
"358 69 CURVE SMOOTH",
"415 70 OFFCURVE",
"500 165 OFFCURVE",
"503 273 CURVE SMOOTH",
"505 339 OFFCURVE",
"503 394 OFFCURVE",
"503 445 CURVE SMOOTH",
"503 481 OFFCURVE",
"486 510 OFFCURVE",
"476 526 CURVE",
"454 527 OFFCURVE",
"441 540 OFFCURVE",
"430 558 CURVE",
"170 558 LINE",
"160 540 OFFCURVE",
"140 528 OFFCURVE",
"118 528 CURVE SMOOTH",
"117 528 LINE",
"109 515 OFFCURVE",
"95 487 OFFCURVE",
"95 445 CURVE SMOOTH"
);
},
{
closed = 1;
nodes = (
"96 577 OFFCURVE",
"105 567 OFFCURVE",
"116 567 CURVE SMOOTH",
"128 567 OFFCURVE",
"137 577 OFFCURVE",
"137 588 CURVE SMOOTH",
"137 600 OFFCURVE",
"128 609 OFFCURVE",
"116 609 CURVE SMOOTH",
"105 609 OFFCURVE",
"96 600 OFFCURVE",
"96 588 CURVE SMOOTH"
);
},
{
closed = 1;
nodes = (
"456 574 OFFCURVE",
"466 565 OFFCURVE",
"477 565 CURVE SMOOTH",
"488 565 OFFCURVE",
"498 574 OFFCURVE",
"498 586 CURVE SMOOTH",
"498 598 OFFCURVE",
"488 607 OFFCURVE",
"477 607 CURVE SMOOTH",
"466 607 OFFCURVE",
"456 598 OFFCURVE",
"456 586 CURVE SMOOTH"
);
}
);
width = 600;
}
);
unicode = 0053;
},
{
glyphname = T;
lastChange = "2022-09-30 16:20:03 +0000";
layers = (
{
layerId = "B1BCE86B-A7FB-414A-B0E3-B1B1CA0865E7";
paths = (
{
closed = 1;
nodes = (
"30 627 OFFCURVE",
"57 654 OFFCURVE",
"90 654 CURVE SMOOTH",
"113 654 OFFCURVE",
"133 641 OFFCURVE",
"143 622 CURVE",
"391 622 LINE",
"401 640 OFFCURVE",
"421 652 OFFCURVE",
"443 652 CURVE SMOOTH",
"476 652 OFFCURVE",
"503 625 OFFCURVE",
"503 593 CURVE SMOOTH",
"503 560 OFFCURVE",
"476 534 OFFCURVE",
"443 534 CURVE SMOOTH",
"419 534 OFFCURVE",
"399 547 OFFCURVE",
"389 567 CURVE",
"296 567 LINE",
"296 112 LINE",
"314 102 OFFCURVE",
"327 83 OFFCURVE",
"327 60 CURVE SMOOTH",
"327 28 OFFCURVE",
"300 1 OFFCURVE",
"267 1 CURVE SMOOTH",
"234 1 OFFCURVE",
"208 28 OFFCURVE",
"208 60 CURVE SMOOTH",
"208 84 OFFCURVE",
"221 104 OFFCURVE",
"241 113 CURVE",
"241 567 LINE",
"143 567 LINE",
"133 548 OFFCURVE",
"113 536 OFFCURVE",
"90 536 CURVE SMOOTH",
"57 536 OFFCURVE",
"30 562 OFFCURVE",
"30 595 CURVE SMOOTH"
);
},
{
closed = 1;
nodes = (
"68 584 OFFCURVE",
"77 575 OFFCURVE",
"88 575 CURVE SMOOTH",
"100 575 OFFCURVE",
"109 584 OFFCURVE",
"109 596 CURVE SMOOTH",
"109 608 OFFCURVE",
"100 617 OFFCURVE",
"88 617 CURVE SMOOTH",
"77 617 OFFCURVE",
"68 608 OFFCURVE",
"68 596 CURVE SMOOTH"
);
},
{
closed = 1;
nodes = (
"248 51 OFFCURVE",
"257 42 OFFCURVE",
"268 42 CURVE SMOOTH",
"280 42 OFFCURVE",
"289 51 OFFCURVE",
"289 63 CURVE SMOOTH",
"289 74 OFFCURVE",
"280 84 OFFCURVE",
"268 84 CURVE SMOOTH",
"257 84 OFFCURVE",
"248 74 OFFCURVE",
"248 63 CURVE SMOOTH"
);
},
{
closed = 1;
nodes = (
"420 583 OFFCURVE",
"430 573 OFFCURVE",
"441 573 CURVE SMOOTH",
"452 573 OFFCURVE",
"462 583 OFFCURVE",
"462 594 CURVE SMOOTH",
"462 606 OFFCURVE",
"452 615 OFFCURVE",
"441 615 CURVE SMOOTH",
"430 615 OFFCURVE",
"420 606 OFFCURVE",
"420 594 CURVE SMOOTH"
);
}
);
width = 533;
}
);
unicode = 0054;
},
{
glyphname = U;
lastChange = "2022-09-30 16:21:15 +0000";
layers = (
{
layerId = "B1BCE86B-A7FB-414A-B0E3-B1B1CA0865E7";
paths = (
{
closed = 1;
nodes = (
"30 577 OFFCURVE",
"57 603 OFFCURVE",
"90 603 CURVE SMOOTH",
"123 603 OFFCURVE",
"150 577 OFFCURVE",
"150 544 CURVE SMOOTH",
"150 521 OFFCURVE",
"137 502 OFFCURVE",
"117 492 CURVE",
"117 0 LINE",
"62 0 LINE",
"62 492 LINE",
"43 502 OFFCURVE",
"30 522 OFFCURVE",
"30 544 CURVE SMOOTH"
);
},
{
closed = 1;
nodes = (
"68 534 OFFCURVE",
"77 525 OFFCURVE",
"88 525 CURVE SMOOTH",
"100 525 OFFCURVE",
"109 534 OFFCURVE",
"109 546 CURVE SMOOTH",
"109 557 OFFCURVE",
"100 567 OFFCURVE",
"88 567 CURVE SMOOTH",
"77 567 OFFCURVE",
"68 557 OFFCURVE",
"68 546 CURVE SMOOTH"
);
}
);
width = 180;
}
);
unicode = 0055;
},
{
glyphname = V;
lastChange = "2022-09-30 16:21:47 +0000";
layers = (
{
layerId = "B1BCE86B-A7FB-414A-B0E3-B1B1CA0865E7";
paths = (
{
closed = 1;
nodes = (
"30 577 OFFCURVE",
"57 603 OFFCURVE",
"90 603 CURVE SMOOTH",
"123 603 OFFCURVE",
"150 577 OFFCURVE",
"150 544 CURVE SMOOTH",
"150 521 OFFCURVE",
"137 502 OFFCURVE",
"117 492 CURVE",
"117 0 LINE",
"62 0 LINE",
"62 492 LINE",
"43 502 OFFCURVE",
"30 522 OFFCURVE",
"30 544 CURVE SMOOTH"
);
},
{
closed = 1;
nodes = (
"68 534 OFFCURVE",
"77 525 OFFCURVE",
"88 525 CURVE SMOOTH",
"100 525 OFFCURVE",
"109 534 OFFCURVE",
"109 546 CURVE SMOOTH",
"109 557 OFFCURVE",
"100 567 OFFCURVE",
"88 567 CURVE SMOOTH",
"77 567 OFFCURVE",
"68 557 OFFCURVE",
"68 546 CURVE SMOOTH"
);
}
);
width = 180;
}
);
unicode = 0056;
},
{
glyphname = W;
lastChange = "2022-09-30 16:21:52 +0000";
layers = (
{
layerId = "B1BCE86B-A7FB-414A-B0E3-B1B1CA0865E7";
paths = (
{
closed = 1;
nodes = (
"30 577 OFFCURVE",
"57 603 OFFCURVE",
"90 603 CURVE SMOOTH",
"123 603 OFFCURVE",
"150 577 OFFCURVE",
"150 544 CURVE SMOOTH",
"150 521 OFFCURVE",
"137 502 OFFCURVE",
"117 492 CURVE",
"117 0 LINE",
"62 0 LINE",
"62 492 LINE",
"43 502 OFFCURVE",
"30 522 OFFCURVE",
"30 544 CURVE SMOOTH"
);
},
{
closed = 1;
nodes = (
"68 534 OFFCURVE",
"77 525 OFFCURVE",
"88 525 CURVE SMOOTH",
"100 525 OFFCURVE",
"109 534 OFFCURVE",
"109 546 CURVE SMOOTH",
"109 557 OFFCURVE",
"100 567 OFFCURVE",
"88 567 CURVE SMOOTH",
"77 567 OFFCURVE",
"68 557 OFFCURVE",
"68 546 CURVE SMOOTH"
);
}
);
width = 180;
}
);
unicode = 0057;
},
{
glyphname = X;
lastChange = "2022-09-30 16:25:16 +0000";
layers = (
{
layerId = "B1BCE86B-A7FB-414A-B0E3-B1B1CA0865E7";
paths = (
{
closed = 1;
nodes = (
"30 458 OFFCURVE",
"62 524 OFFCURVE",
"75 548 CURVE SMOOTH",
"75 548 LINE",
"68 558 OFFCURVE",
"63 570 OFFCURVE",
"63 584 CURVE SMOOTH",
"63 617 OFFCURVE",
"90 643 OFFCURVE",
"123 643 CURVE SMOOTH",
"156 643 OFFCURVE",
"183 617 OFFCURVE",
"183 584 CURVE SMOOTH",
"183 551 OFFCURVE",
"156 525 OFFCURVE",
"123 525 CURVE SMOOTH",
"122 525 LINE",
"112 493 OFFCURVE",
"93 422 OFFCURVE",
"93 340 CURVE SMOOTH",
"93 258 OFFCURVE",
"126 85 OFFCURVE",
"278 66 CURVE",
"278 536 LINE",
"260 546 OFFCURVE",
"248 566 OFFCURVE",
"248 587 CURVE SMOOTH",
"248 620 OFFCURVE",
"275 646 OFFCURVE",
"308 646 CURVE SMOOTH",
"341 646 OFFCURVE",
"367 620 OFFCURVE",
"367 587 CURVE SMOOTH",
"367 564 OFFCURVE",
"354 546 OFFCURVE",
"334 536 CURVE",
"333 66 LINE",
"484 84 OFFCURVE",
"517 258 OFFCURVE",
"517 340 CURVE SMOOTH",
"517 423 OFFCURVE",
"493 498 OFFCURVE",
"481 529 CURVE SMOOTH",
"478 539 OFFCURVE",
"481 529 OFFCURVE",
"481 529 CURVE",
"481 529 LINE",
"450 529 OFFCURVE",
"426 556 OFFCURVE",
"426 588 CURVE SMOOTH",
"426 620 OFFCURVE",
"452 647 OFFCURVE",
"485 647 CURVE SMOOTH",
"518 647 OFFCURVE",
"545 620 OFFCURVE",
"545 588 CURVE SMOOTH",
"545 573 OFFCURVE",
"539 559 OFFCURVE",
"530 549 CURVE",
"543 521 OFFCURVE",
"569 451 OFFCURVE",
"569 345 CURVE SMOOTH",
"569 94 OFFCURVE",
"434 0 OFFCURVE",
"304 0 CURVE SMOOTH",
"174 0 OFFCURVE",
"30 128 OFFCURVE",
"30 345 CURVE SMOOTH"
);
},
{
closed = 1;
nodes = (
"101 574 OFFCURVE",
"110 564 OFFCURVE",
"121 564 CURVE SMOOTH",
"133 564 OFFCURVE",
"142 574 OFFCURVE",
"142 585 CURVE SMOOTH",
"142 597 OFFCURVE",
"133 606 OFFCURVE",
"121 606 CURVE SMOOTH",
"110 606 OFFCURVE",
"101 597 OFFCURVE",
"101 585 CURVE SMOOTH"
);
},
{
closed = 1;
nodes = (
"286 576 OFFCURVE",
"295 567 OFFCURVE",
"307 567 CURVE SMOOTH",
"318 567 OFFCURVE",
"327 576 OFFCURVE",
"327 588 CURVE SMOOTH",
"327 600 OFFCURVE",
"318 609 OFFCURVE",
"307 609 CURVE SMOOTH",
"295 609 OFFCURVE",
"286 600 OFFCURVE",
"286 588 CURVE SMOOTH"
);
},
{
closed = 1;
nodes = (
"463 577 OFFCURVE",
"472 568 OFFCURVE",
"483 568 CURVE SMOOTH",
"495 568 OFFCURVE",
"504 577 OFFCURVE",
"504 589 CURVE SMOOTH",
"504 601 OFFCURVE",
"495 610 OFFCURVE",
"483 610 CURVE SMOOTH",
"472 610 OFFCURVE",
"463 601 OFFCURVE",
"463 589 CURVE SMOOTH"
);
}
);
width = 599;
}
);
unicode = 0058;
},
{
glyphname = Y;
lastChange = "2022-09-30 16:25:43 +0000";
layers = (
{
layerId = "B1BCE86B-A7FB-414A-B0E3-B1B1CA0865E7";
paths = (
{
closed = 1;
nodes = (
"30 93 OFFCURVE",
"57 119 OFFCURVE",
"90 119 CURVE",
"90 119 LINE",
"307 569 LINE",
"302 577 OFFCURVE",
"300 587 OFFCURVE",
"300 596 CURVE SMOOTH",
"300 629 OFFCURVE",
"327 655 OFFCURVE",
"360 655 CURVE SMOOTH",
"393 655 OFFCURVE",
"419 629 OFFCURVE",
"419 596 CURVE SMOOTH",
"419 586 OFFCURVE",
"416 576 OFFCURVE",
"411 567 CURVE",
"630 118 LINE",
"630 118 LINE",
"661 117 OFFCURVE",
"687 92 OFFCURVE",
"687 60 CURVE SMOOTH",
"687 28 OFFCURVE",
"660 1 OFFCURVE",
"627 1 CURVE SMOOTH",
"605 1 OFFCURVE",
"586 13 OFFCURVE",
"576 31 CURVE",
"142 31 LINE",
"132 13 OFFCURVE",
"112 1 OFFCURVE",
"90 1 CURVE SMOOTH",
"57 1 OFFCURVE",
"30 28 OFFCURVE",
"30 60 CURVE SMOOTH"
);
},
{
closed = 1;
nodes = (
"70 51 OFFCURVE",
"79 42 OFFCURVE",
"91 42 CURVE SMOOTH",
"102 42 OFFCURVE",
"111 51 OFFCURVE",
"111 63 CURVE SMOOTH",
"111 75 OFFCURVE",
"102 84 OFFCURVE",
"91 84 CURVE SMOOTH",
"79 84 OFFCURVE",
"70 75 OFFCURVE",
"70 63 CURVE SMOOTH"
);
},
{
closed = 1;
nodes = (
"140 93 OFFCURVE",
"140 93 OFFCURVE",
"141 92 CURVE",
"577 92 LINE",
"580 96 LINE",
"365 537 LINE",
"360 537 LINE SMOOTH",
"357 537 OFFCURVE",
"355 537 OFFCURVE",
"352 538 CURVE",
"139 93 LINE"
);
},
{
closed = 1;
nodes = (
"337 586 OFFCURVE",
"346 577 OFFCURVE",
"358 577 CURVE SMOOTH",
"369 577 OFFCURVE",
"378 586 OFFCURVE",
"378 598 CURVE SMOOTH",
"378 609 OFFCURVE",
"369 619 OFFCURVE",
"358 619 CURVE SMOOTH",
"346 619 OFFCURVE",
"337 609 OFFCURVE",
"337 598 CURVE SMOOTH"
);
},
{
closed = 1;
nodes = (
"606 49 OFFCURVE",
"615 36 OFFCURVE",
"627 36 CURVE SMOOTH",
"638 36 OFFCURVE",
"647 49 OFFCURVE",
"647 60 CURVE SMOOTH",
"647 72 OFFCURVE",
"638 81 OFFCURVE",
"627 84 CURVE",
"615 84 OFFCURVE",
"606 72 OFFCURVE",
"606 60 CURVE SMOOTH"
);
}
);
width = 717;
}
);
unicode = 0059;
},
{
glyphname = Z;
lastChange = "2022-09-30 16:26:08 +0000";
layers = (
{
layerId = "B1BCE86B-A7FB-414A-B0E3-B1B1CA0865E7";
paths = (
{
closed = 1;
nodes = (
"30 626 OFFCURVE",
"57 652 OFFCURVE",
"90 652 CURVE SMOOTH",
"123 652 OFFCURVE",
"149 626 OFFCURVE",
"149 593 CURVE",
"146 576 LINE",
"299 422 LINE",
"442 579 LINE",
"441 583 OFFCURVE",
"441 588 OFFCURVE",
"441 592 CURVE SMOOTH",
"441 625 OFFCURVE",
"467 651 OFFCURVE",
"500 651 CURVE SMOOTH",
"533 651 OFFCURVE",
"560 625 OFFCURVE",
"560 592 CURVE SMOOTH",
"560 559 OFFCURVE",
"533 532 OFFCURVE",
"500 532 CURVE SMOOTH",
"492 532 OFFCURVE",
"484 534 OFFCURVE",
"477 537 CURVE",
"335 386 LINE",
"663 56 LINE",
"663 0 LINE",
"50 0 LINE",
"50 56 LINE",
"586 56 LINE",
"107 538 LINE",
"102 536 OFFCURVE",
"96 535 OFFCURVE",
"90 535 CURVE SMOOTH",
"57 535 OFFCURVE",
"30 561 OFFCURVE",
"30 593 CURVE SMOOTH"
);
},
{
closed = 1;
nodes = (
"68 583 OFFCURVE",
"76 573 OFFCURVE",
"87 573 CURVE SMOOTH",
"100 573 OFFCURVE",
"108 583 OFFCURVE",
"108 595 CURVE SMOOTH",
"108 606 OFFCURVE",
"100 616 OFFCURVE",
"87 616 CURVE SMOOTH",
"76 616 OFFCURVE",
"68 606 OFFCURVE",
"68 595 CURVE SMOOTH"
);
},
{
closed = 1;
nodes = (
"478 582 OFFCURVE",
"487 572 OFFCURVE",
"499 572 CURVE SMOOTH",
"510 572 OFFCURVE",
"519 582 OFFCURVE",
"519 593 CURVE SMOOTH",
"519 605 OFFCURVE",
"510 614 OFFCURVE",
"499 614 CURVE SMOOTH",
"487 614 OFFCURVE",
"478 605 OFFCURVE",
"478 593 CURVE SMOOTH"
);
}
);
width = 693;
}
);
unicode = 005A;
},
{
glyphname = a;
lastChange = "2022-09-30 16:27:49 +0000";
layers = (
{
layerId = "B1BCE86B-A7FB-414A-B0E3-B1B1CA0865E7";
paths = (
{
closed = 1;
nodes = (
"30 492 OFFCURVE",
"51 513 OFFCURVE",
"78 513 CURVE SMOOTH",
"104 513 OFFCURVE",
"125 492 OFFCURVE",
"125 466 CURVE",
"122 453 LINE",
"334 238 LINE",
"454 435 LINE",
"454 435 OFFCURVE",
"454 435 OFFCURVE",
"454 435 CURVE SMOOTH",
"443 443 OFFCURVE",
"441 454 OFFCURVE",
"441 467 CURVE SMOOTH",
"441 493 OFFCURVE",
"462 514 OFFCURVE",
"488 514 CURVE SMOOTH",
"514 514 OFFCURVE",
"537 493 OFFCURVE",
"537 467 CURVE SMOOTH",
"537 443 OFFCURVE",
"518 424 OFFCURVE",
"495 420 CURVE",
"367 205 LINE",
"480 92 LINE",
"486 95 OFFCURVE",
"491 95 OFFCURVE",
"498 95 CURVE SMOOTH",
"524 95 OFFCURVE",
"546 74 OFFCURVE",
"546 49 CURVE SMOOTH",
"546 23 OFFCURVE",
"524 1 OFFCURVE",
"498 1 CURVE SMOOTH",
"471 1 OFFCURVE",
"450 23 OFFCURVE",
"450 49 CURVE SMOOTH",
"450 53 OFFCURVE",
"450 56 OFFCURVE",
"451 59 CURVE",
"241 272 LINE",
"241 272 LINE",
"119 73 LINE",
"124 66 OFFCURVE",
"127 57 OFFCURVE",
"127 47 CURVE SMOOTH",
"127 21 OFFCURVE",
"106 0 OFFCURVE",
"80 0 CURVE SMOOTH",
"54 0 OFFCURVE",
"33 21 OFFCURVE",
"33 47 CURVE SMOOTH",
"33 73 OFFCURVE",
"54 95 OFFCURVE",
"80 95 CURVE SMOOTH",
"82 95 LINE",
"207 303 LINE",
"91 422 LINE",
"87 420 OFFCURVE",
"82 419 OFFCURVE",
"78 419 CURVE SMOOTH",
"51 419 OFFCURVE",
"30 440 OFFCURVE",
"30 466 CURVE SMOOTH"
);
},
{
closed = 1;
nodes = (
"60 458 OFFCURVE",
"67 450 OFFCURVE",
"76 450 CURVE SMOOTH",
"86 450 OFFCURVE",
"92 458 OFFCURVE",
"92 467 CURVE SMOOTH",
"92 476 OFFCURVE",
"86 484 OFFCURVE",
"76 484 CURVE SMOOTH",
"67 484 OFFCURVE",
"60 476 OFFCURVE",
"60 467 CURVE SMOOTH"
);
},
{
closed = 1;
nodes = (
"64 41 OFFCURVE",
"71 33 OFFCURVE",
"81 33 CURVE SMOOTH",
"90 33 OFFCURVE",
"98 41 OFFCURVE",
"98 50 CURVE SMOOTH",
"98 59 OFFCURVE",
"90 67 OFFCURVE",
"81 67 CURVE SMOOTH",
"71 67 OFFCURVE",
"64 59 OFFCURVE",
"64 50 CURVE SMOOTH"
);
},
{
closed = 1;
nodes = (
"470 459 OFFCURVE",
"478 451 OFFCURVE",
"487 451 CURVE SMOOTH",
"496 451 OFFCURVE",
"504 459 OFFCURVE",
"504 468 CURVE SMOOTH",
"504 477 OFFCURVE",
"496 485 OFFCURVE",
"487 485 CURVE SMOOTH",
"478 485 OFFCURVE",
"470 477 OFFCURVE",
"470 468 CURVE SMOOTH"
);
},
{
closed = 1;
nodes = (
"480 40 OFFCURVE",
"488 32 OFFCURVE",
"497 32 CURVE SMOOTH",
"506 32 OFFCURVE",
"514 40 OFFCURVE",
"514 49 CURVE SMOOTH",
"514 59 OFFCURVE",
"506 65 OFFCURVE",
"497 65 CURVE SMOOTH",
"488 65 OFFCURVE",
"480 59 OFFCURVE",
"480 49 CURVE SMOOTH"
);
}
);
width = 576;
}
);
unicode = 0061;
},
{
glyphname = b;
lastChange = "2022-09-30 16:28:26 +0000";
layers = (
{
layerId = "B1BCE86B-A7FB-414A-B0E3-B1B1CA0865E7";
paths = (
{
closed = 1;
nodes = (
"30 501 OFFCURVE",
"51 522 OFFCURVE",
"78 522 CURVE SMOOTH",
"94 522 OFFCURVE",
"110 514 OFFCURVE",
"118 500 CURVE",
"118 500 LINE",
"163 501 OFFCURVE",
"345 498 OFFCURVE",
"437 401 CURVE SMOOTH",
"520 314 OFFCURVE",
"528 138 OFFCURVE",
"529 86 CURVE",
"529 86 LINE",
"543 78 OFFCURVE",
"554 63 OFFCURVE",
"554 46 CURVE SMOOTH",
"554 19 OFFCURVE",
"532 -2 OFFCURVE",
"506 -2 CURVE SMOOTH",
"488 -2 OFFCURVE",
"473 7 OFFCURVE",
"465 22 CURVE",
"115 22 LINE",
"110 9 OFFCURVE",
"96 0 OFFCURVE",
"79 0 CURVE SMOOTH",
"53 0 OFFCURVE",
"32 21 OFFCURVE",
"32 47 CURVE SMOOTH",
"32 73 OFFCURVE",
"53 94 OFFCURVE",
"79 94 CURVE SMOOTH",
"97 94 OFFCURVE",
"112 84 OFFCURVE",
"120 70 CURVE",
"466 70 LINE",
"470 78 OFFCURVE",
"478 84 OFFCURVE",
"486 88 CURVE",
"487 135 OFFCURVE",
"483 281 OFFCURVE",
"402 373 CURVE SMOOTH",
"334 451 OFFCURVE",
"166 457 OFFCURVE",
"122 457 CURVE",
"114 440 OFFCURVE",
"98 428 OFFCURVE",
"78 428 CURVE SMOOTH",
"51 428 OFFCURVE",
"30 450 OFFCURVE",
"30 476 CURVE SMOOTH"
);
},
{
closed = 1;
nodes = (
"60 467 OFFCURVE",
"67 460 OFFCURVE",
"77 460 CURVE SMOOTH",
"86 460 OFFCURVE",
"93 467 OFFCURVE",
"93 477 CURVE SMOOTH",
"93 486 OFFCURVE",
"86 494 OFFCURVE",
"77 494 CURVE SMOOTH",
"67 494 OFFCURVE",
"60 486 OFFCURVE",
"60 477 CURVE SMOOTH"
);
},
{
closed = 1;
nodes = (
"63 40 OFFCURVE",
"70 32 OFFCURVE",
"80 32 CURVE SMOOTH",
"89 32 OFFCURVE",
"96 40 OFFCURVE",
"96 49 CURVE SMOOTH",
"96 58 OFFCURVE",
"89 66 OFFCURVE",
"80 66 CURVE SMOOTH",
"70 66 OFFCURVE",
"63 58 OFFCURVE",
"63 49 CURVE SMOOTH"
);
},
{
closed = 1;
nodes = (
"490 37 OFFCURVE",
"496 29 OFFCURVE",
"505 29 CURVE SMOOTH",
"514 29 OFFCURVE",
"522 37 OFFCURVE",
"522 46 CURVE SMOOTH",
"522 55 OFFCURVE",
"514 62 OFFCURVE",
"505 62 CURVE SMOOTH",
"496 62 OFFCURVE",
"490 55 OFFCURVE",
"490 46 CURVE SMOOTH"
);
}
);
width = 584;
}
);
unicode = 0062;
},
{
glyphname = c;
lastChange = "2022-09-30 16:29:09 +0000";
layers = (
{
layerId = "B1BCE86B-A7FB-414A-B0E3-B1B1CA0865E7";
paths = (
{
closed = 1;
nodes = (
"30 474 OFFCURVE",
"52 496 OFFCURVE",
"78 496 CURVE SMOOTH",
"93 496 OFFCURVE",
"105 490 OFFCURVE",
"114 480 CURVE",
"471 480 LINE",
"480 489 OFFCURVE",
"492 494 OFFCURVE",
"506 494 CURVE SMOOTH",
"532 494 OFFCURVE",
"554 473 OFFCURVE",
"554 447 CURVE SMOOTH",
"554 430 OFFCURVE",
"545 416 OFFCURVE",
"532 408 CURVE",
"532 0 LINE",
"477 0 LINE",
"477 410 LINE",
"473 412 OFFCURVE",
"470 415 OFFCURVE",
"467 419 CURVE",
"115 419 LINE",
"114 417 OFFCURVE",
"110 414 OFFCURVE",
"108 412 CURVE",
"108 0 LINE",
"50 0 LINE",
"50 411 LINE",
"38 419 OFFCURVE",
"30 433 OFFCURVE",
"30 449 CURVE SMOOTH"
);
},
{
closed = 1;
nodes = (
"60 440 OFFCURVE",
"67 433 OFFCURVE",
"77 433 CURVE SMOOTH",
"86 433 OFFCURVE",
"93 440 OFFCURVE",
"93 450 CURVE SMOOTH",
"93 459 OFFCURVE",
"86 466 OFFCURVE",
"77 466 CURVE SMOOTH",
"67 466 OFFCURVE",
"60 459 OFFCURVE",
"60 450 CURVE SMOOTH"
);
},
{
closed = 1;
nodes = (
"488 438 OFFCURVE",
"495 431 OFFCURVE",
"504 431 CURVE SMOOTH",
"514 431 OFFCURVE",
"521 438 OFFCURVE",
"521 448 CURVE SMOOTH",
"521 458 OFFCURVE",
"514 465 OFFCURVE",
"504 465 CURVE SMOOTH",
"495 465 OFFCURVE",
"488 458 OFFCURVE",
"488 448 CURVE SMOOTH"
);
}
);
width = 584;
}
);
unicode = 0063;
},
{
glyphname = d;
lastChange = "2022-09-30 16:29:51 +0000";
layers = (
{
layerId = "B1BCE86B-A7FB-414A-B0E3-B1B1CA0865E7";
paths = (
{
closed = 1;
nodes = (
"30 474 OFFCURVE",
"52 495 OFFCURVE",
"78 495 CURVE SMOOTH",
"93 495 OFFCURVE",
"105 489 OFFCURVE",
"114 479 CURVE",
"453 479 LINE",
"462 490 OFFCURVE",
"475 496 OFFCURVE",
"490 496 CURVE SMOOTH",
"516 496 OFFCURVE",
"538 474 OFFCURVE",
"538 449 CURVE SMOOTH",
"538 433 OFFCURVE",
"530 419 OFFCURVE",
"518 411 CURVE",
"518 0 LINE",
"463 0 LINE",
"463 410 LINE",
"459 412 OFFCURVE",
"456 415 OFFCURVE",
"453 418 CURVE",
"115 418 LINE",
"106 408 OFFCURVE",
"94 401 OFFCURVE",
"78 401 CURVE SMOOTH",
"52 401 OFFCURVE",
"30 422 OFFCURVE",
"30 448 CURVE SMOOTH"
);
},
{
closed = 1;
nodes = (
"60 439 OFFCURVE",
"67 432 OFFCURVE",
"77 432 CURVE SMOOTH",
"86 432 OFFCURVE",
"93 439 OFFCURVE",
"93 449 CURVE SMOOTH",
"93 458 OFFCURVE",
"86 466 OFFCURVE",
"77 466 CURVE SMOOTH",
"67 466 OFFCURVE",
"60 458 OFFCURVE",
"60 449 CURVE SMOOTH"
);
},
{
closed = 1;
nodes = (
"472 440 OFFCURVE",
"479 433 OFFCURVE",
"488 433 CURVE SMOOTH",
"498 433 OFFCURVE",
"505 440 OFFCURVE",
"505 450 CURVE SMOOTH",
"505 459 OFFCURVE",
"498 466 OFFCURVE",
"488 466 CURVE SMOOTH",
"479 466 OFFCURVE",
"472 459 OFFCURVE",
"472 450 CURVE SMOOTH"
);
}
);
width = 568;
}
);
unicode = 0064;
},
{
glyphname = e;
lastChange = "2022-09-30 16:30:36 +0000";
layers = (
{
layerId = "B1BCE86B-A7FB-414A-B0E3-B1B1CA0865E7";
paths = (
{
closed = 1;
nodes = (
"30 472 OFFCURVE",
"52 493 OFFCURVE",
"78 493 CURVE SMOOTH",
"93 493 OFFCURVE",
"105 487 OFFCURVE",
"114 477 CURVE",
"454 477 LINE",
"461 488 OFFCURVE",
"475 494 OFFCURVE",
"490 494 CURVE SMOOTH",
"516 494 OFFCURVE",
"538 473 OFFCURVE",
"538 447 CURVE SMOOTH",
"538 430 OFFCURVE",
"529 416 OFFCURVE",
"516 408 CURVE",
"516 0 LINE",
"454 0 LINE",
"454 408 LINE",
"217 408 LINE",
"217 0 LINE",
"161 0 LINE",
"161 408 LINE",
"114 408 LINE",
"102 400 OFFCURVE",
"94 399 OFFCURVE",
"78 399 CURVE SMOOTH",
"52 399 OFFCURVE",
"30 420 OFFCURVE",
"30 446 CURVE SMOOTH"
);
},
{
closed = 1;
nodes = (
"60 437 OFFCURVE",
"67 430 OFFCURVE",
"77 430 CURVE SMOOTH",
"86 430 OFFCURVE",
"93 437 OFFCURVE",
"93 447 CURVE SMOOTH",
"93 457 OFFCURVE",
"86 464 OFFCURVE",
"77 464 CURVE SMOOTH",
"67 464 OFFCURVE",
"60 457 OFFCURVE",
"60 447 CURVE SMOOTH"
);
},
{
closed = 1;
nodes = (
"472 438 OFFCURVE",
"479 431 OFFCURVE",
"488 431 CURVE SMOOTH",
"498 431 OFFCURVE",
"505 438 OFFCURVE",
"505 448 CURVE SMOOTH",
"505 457 OFFCURVE",
"498 465 OFFCURVE",
"488 465 CURVE SMOOTH",
"479 465 OFFCURVE",
"472 457 OFFCURVE",
"472 448 CURVE SMOOTH"
);
}
);
width = 568;
}
);
unicode = 0065;
},
{
glyphname = f;
lastChange = "2022-09-30 16:31:28 +0000";
layers = (
{
layerId = "B1BCE86B-A7FB-414A-B0E3-B1B1CA0865E7";
paths = (
{
closed = 1;
nodes = (
"30 501 OFFCURVE",
"52 522 OFFCURVE",
"78 522 CURVE SMOOTH",
"105 522 OFFCURVE",
"126 501 OFFCURVE",
"126 475 CURVE",
"123 461 LINE",
"246 338 LINE",
"360 463 LINE",
"359 467 OFFCURVE",
"359 471 OFFCURVE",
"359 474 CURVE SMOOTH",
"359 500 OFFCURVE",
"380 521 OFFCURVE",
"406 521 CURVE SMOOTH",
"433 521 OFFCURVE",
"454 500 OFFCURVE",
"454 474 CURVE SMOOTH",
"454 447 OFFCURVE",
"433 426 OFFCURVE",
"406 426 CURVE SMOOTH",
"400 426 OFFCURVE",
"394 427 OFFCURVE",
"388 430 CURVE",
"274 309 LINE",
"537 45 LINE",
"537 0 LINE",
"46 0 LINE",
"46 45 LINE",
"475 45 LINE",
"92 431 LINE",
"88 429 OFFCURVE",
"83 428 OFFCURVE",
"78 428 CURVE SMOOTH",
"52 428 OFFCURVE",
"30 449 OFFCURVE",
"30 475 CURVE SMOOTH"
);
},
{
closed = 1;
nodes = (
"61 467 OFFCURVE",
"67 459 OFFCURVE",
"76 459 CURVE SMOOTH",
"86 459 OFFCURVE",
"93 467 OFFCURVE",
"93 476 CURVE SMOOTH",
"93 485 OFFCURVE",
"86 493 OFFCURVE",
"76 493 CURVE SMOOTH",
"67 493 OFFCURVE",
"61 485 OFFCURVE",
"61 476 CURVE SMOOTH"
);
},
{
closed = 1;
nodes = (
"389 466 OFFCURVE",
"396 458 OFFCURVE",
"406 458 CURVE SMOOTH",
"414 458 OFFCURVE",
"422 466 OFFCURVE",
"422 475 CURVE SMOOTH",
"422 484 OFFCURVE",
"414 491 OFFCURVE",
"406 491 CURVE SMOOTH",
"396 491 OFFCURVE",
"389 484 OFFCURVE",
"389 475 CURVE SMOOTH"
);
}
);
width = 567;
}
);
unicode = 0066;
},
{
glyphname = g;
lastChange = "2022-09-30 16:32:25 +0000";
layers = (
{
layerId = "B1BCE86B-A7FB-414A-B0E3-B1B1CA0865E7";
paths = (
{
closed = 1;
nodes = (
"30 74 OFFCURVE",
"52 95 OFFCURVE",
"78 95 CURVE",
"83 95 LINE",
"330 346 LINE",
"330 434 LINE",
"318 442 OFFCURVE",
"311 457 OFFCURVE",
"311 472 CURVE SMOOTH",
"311 498 OFFCURVE",
"332 519 OFFCURVE",
"358 519 CURVE SMOOTH",
"385 519 OFFCURVE",
"407 498 OFFCURVE",
"407 472 CURVE SMOOTH",
"407 456 OFFCURVE",
"398 442 OFFCURVE",
"385 433 CURVE",
"385 87 LINE",
"398 78 OFFCURVE",
"407 65 OFFCURVE",
"407 48 CURVE SMOOTH",
"407 22 OFFCURVE",
"385 0 OFFCURVE",
"358 0 CURVE SMOOTH",
"332 0 OFFCURVE",
"311 22 OFFCURVE",
"311 48 CURVE SMOOTH",
"311 64 OFFCURVE",
"318 78 OFFCURVE",
"330 86 CURVE",
"330 266 LINE",
"125 59 LINE",
"125 55 OFFCURVE",
"126 52 OFFCURVE",
"126 48 CURVE SMOOTH",
"126 22 OFFCURVE",
"105 1 OFFCURVE",
"78 1 CURVE SMOOTH",
"52 1 OFFCURVE",
"30 22 OFFCURVE",
"30 48 CURVE SMOOTH"
);
},
{
closed = 1;
nodes = (
"61 39 OFFCURVE",
"68 32 OFFCURVE",
"78 32 CURVE SMOOTH",
"87 32 OFFCURVE",
"93 39 OFFCURVE",
"93 49 CURVE SMOOTH",
"93 58 OFFCURVE",
"87 66 OFFCURVE",
"78 66 CURVE SMOOTH",
"68 66 OFFCURVE",
"61 58 OFFCURVE",
"61 49 CURVE SMOOTH"
);
},
{
closed = 1;
nodes = (
"341 464 OFFCURVE",
"348 457 OFFCURVE",
"357 457 CURVE SMOOTH",
"366 457 OFFCURVE",
"374 464 OFFCURVE",
"374 474 CURVE SMOOTH",
"374 482 OFFCURVE",
"366 490 OFFCURVE",
"357 490 CURVE SMOOTH",
"348 490 OFFCURVE",
"341 482 OFFCURVE",
"341 474 CURVE SMOOTH"
);
},
{
closed = 1;
nodes = (
"341 39 OFFCURVE",
"349 32 OFFCURVE",
"358 32 CURVE SMOOTH",
"367 32 OFFCURVE",
"374 39 OFFCURVE",
"374 49 CURVE SMOOTH",
"374 58 OFFCURVE",
"367 66 OFFCURVE",
"358 66 CURVE SMOOTH",
"349 66 OFFCURVE",
"341 58 OFFCURVE",
"341 49 CURVE SMOOTH"
);
}
);
width = 437;
}
);
unicode = 0067;
},
{
glyphname = h;
lastChange = "2022-09-30 16:30:55 +0000";
layers = (
{
layerId = "B1BCE86B-A7FB-414A-B0E3-B1B1CA0865E7";
paths = (
{
closed = 1;
nodes = (
"30 472 OFFCURVE",
"52 493 OFFCURVE",
"78 493 CURVE SMOOTH",
"93 493 OFFCURVE",
"105 487 OFFCURVE",
"114 477 CURVE",
"454 477 LINE",
"461 488 OFFCURVE",
"475 494 OFFCURVE",
"490 494 CURVE SMOOTH",
"516 494 OFFCURVE",
"538 473 OFFCURVE",
"538 447 CURVE SMOOTH",
"538 430 OFFCURVE",
"529 416 OFFCURVE",
"516 408 CURVE",
"516 0 LINE",
"454 0 LINE",
"454 408 LINE",
"217 408 LINE",
"217 0 LINE",
"161 0 LINE",
"161 408 LINE",
"114 408 LINE",
"102 400 OFFCURVE",
"94 399 OFFCURVE",
"78 399 CURVE SMOOTH",
"52 399 OFFCURVE",
"30 420 OFFCURVE",
"30 446 CURVE SMOOTH"
);
},
{
closed = 1;
nodes = (
"60 437 OFFCURVE",
"67 430 OFFCURVE",
"77 430 CURVE SMOOTH",
"86 430 OFFCURVE",
"93 437 OFFCURVE",
"93 447 CURVE SMOOTH",
"93 457 OFFCURVE",
"86 464 OFFCURVE",
"77 464 CURVE SMOOTH",
"67 464 OFFCURVE",
"60 457 OFFCURVE",
"60 447 CURVE SMOOTH"
);
},
{
closed = 1;
nodes = (
"472 438 OFFCURVE",
"479 431 OFFCURVE",
"488 431 CURVE SMOOTH",
"498 431 OFFCURVE",
"505 438 OFFCURVE",
"505 448 CURVE SMOOTH",
"505 457 OFFCURVE",
"498 465 OFFCURVE",
"488 465 CURVE SMOOTH",
"479 465 OFFCURVE",
"472 457 OFFCURVE",
"472 448 CURVE SMOOTH"
);
}
);
width = 568;
}
);
unicode = 0068;
},
{
glyphname = i;
lastChange = "2022-09-30 16:32:59 +0000";
layers = (
{
layerId = "B1BCE86B-A7FB-414A-B0E3-B1B1CA0865E7";
paths = (
{
closed = 1;
nodes = (
"30 74 OFFCURVE",
"51 95 OFFCURVE",
"78 95 CURVE",
"78 95 LINE",
"251 455 LINE",
"247 461 OFFCURVE",
"246 469 OFFCURVE",
"246 476 CURVE SMOOTH",
"246 503 OFFCURVE",
"267 524 OFFCURVE",
"294 524 CURVE SMOOTH",
"320 524 OFFCURVE",
"341 503 OFFCURVE",
"341 476 CURVE SMOOTH",
"341 468 OFFCURVE",
"339 460 OFFCURVE",
"335 453 CURVE",
"510 94 LINE",
"510 94 LINE",
"535 93 OFFCURVE",
"555 73 OFFCURVE",
"555 48 CURVE SMOOTH",
"555 22 OFFCURVE",
"534 0 OFFCURVE",
"507 0 CURVE SMOOTH",
"490 0 OFFCURVE",
"475 10 OFFCURVE",
"467 24 CURVE",
"119 24 LINE",
"111 10 OFFCURVE",
"95 0 OFFCURVE",
"78 0 CURVE SMOOTH",
"51 0 OFFCURVE",
"30 22 OFFCURVE",
"30 48 CURVE SMOOTH"
);
},
{
closed = 1;
nodes = (
"62 40 OFFCURVE",
"69 33 OFFCURVE",
"79 33 CURVE SMOOTH",
"87 33 OFFCURVE",
"95 40 OFFCURVE",
"95 50 CURVE SMOOTH",
"95 60 OFFCURVE",
"87 67 OFFCURVE",
"79 67 CURVE SMOOTH",
"69 67 OFFCURVE",
"62 60 OFFCURVE",
"62 50 CURVE SMOOTH"
);
},
{
closed = 1;
nodes = (
"118 74 OFFCURVE",
"118 74 OFFCURVE",
"119 73 CURVE",
"467 73 LINE",
"470 76 LINE",
"298 429 LINE",
"294 429 LINE SMOOTH",
"291 429 OFFCURVE",
"290 429 OFFCURVE",
"287 430 CURVE",
"117 74 LINE"
);
},
{
closed = 1;
nodes = (
"275 468 OFFCURVE",
"283 461 OFFCURVE",
"292 461 CURVE SMOOTH",
"301 461 OFFCURVE",
"308 468 OFFCURVE",
"308 478 CURVE SMOOTH",
"308 487 OFFCURVE",
"301 495 OFFCURVE",
"292 495 CURVE SMOOTH",
"283 495 OFFCURVE",
"275 487 OFFCURVE",
"275 478 CURVE SMOOTH"
);
},
{
closed = 1;
nodes = (
"491 39 OFFCURVE",
"498 28 OFFCURVE",
"507 28 CURVE SMOOTH",
"516 28 OFFCURVE",
"523 39 OFFCURVE",
"523 48 CURVE SMOOTH",
"523 57 OFFCURVE",
"516 64 OFFCURVE",
"507 67 CURVE",
"498 67 OFFCURVE",
"491 57 OFFCURVE",
"491 48 CURVE SMOOTH"
);
}
);
width = 585;
}
);
unicode = 0069;
},
{
glyphname = j;
lastChange = "2022-09-30 16:33:15 +0000";
layers = (
{
layerId = "B1BCE86B-A7FB-414A-B0E3-B1B1CA0865E7";
paths = (
{
closed = 1;
nodes = (
"30 74 OFFCURVE",
"51 95 OFFCURVE",
"78 95 CURVE",
"78 95 LINE",
"251 455 LINE",
"247 461 OFFCURVE",
"246 469 OFFCURVE",
"246 476 CURVE SMOOTH",
"246 503 OFFCURVE",
"267 524 OFFCURVE",
"294 524 CURVE SMOOTH",
"320 524 OFFCURVE",
"341 503 OFFCURVE",
"341 476 CURVE SMOOTH",
"341 468 OFFCURVE",
"339 460 OFFCURVE",
"335 453 CURVE",
"510 94 LINE",
"510 94 LINE",
"535 93 OFFCURVE",
"555 73 OFFCURVE",
"555 48 CURVE SMOOTH",
"555 22 OFFCURVE",
"534 0 OFFCURVE",
"507 0 CURVE SMOOTH",
"490 0 OFFCURVE",
"475 10 OFFCURVE",
"467 24 CURVE",
"119 24 LINE",
"111 10 OFFCURVE",
"95 0 OFFCURVE",
"78 0 CURVE SMOOTH",
"51 0 OFFCURVE",
"30 22 OFFCURVE",
"30 48 CURVE SMOOTH"
);
},
{
closed = 1;
nodes = (
"62 40 OFFCURVE",
"69 33 OFFCURVE",
"79 33 CURVE SMOOTH",
"87 33 OFFCURVE",
"95 40 OFFCURVE",
"95 50 CURVE SMOOTH",
"95 60 OFFCURVE",
"87 67 OFFCURVE",
"79 67 CURVE SMOOTH",
"69 67 OFFCURVE",
"62 60 OFFCURVE",
"62 50 CURVE SMOOTH"
);
},
{
closed = 1;
nodes = (
"118 74 OFFCURVE",
"118 74 OFFCURVE",
"119 73 CURVE",
"467 73 LINE",
"470 76 LINE",
"298 429 LINE",
"294 429 LINE SMOOTH",
"291 429 OFFCURVE",
"290 429 OFFCURVE",
"287 430 CURVE",
"117 74 LINE"
);
},
{
closed = 1;
nodes = (
"275 468 OFFCURVE",
"283 461 OFFCURVE",
"292 461 CURVE SMOOTH",
"301 461 OFFCURVE",
"308 468 OFFCURVE",
"308 478 CURVE SMOOTH",
"308 487 OFFCURVE",
"301 495 OFFCURVE",
"292 495 CURVE SMOOTH",
"283 495 OFFCURVE",
"275 487 OFFCURVE",
"275 478 CURVE SMOOTH"
);
},
{
closed = 1;
nodes = (
"491 39 OFFCURVE",
"498 28 OFFCURVE",
"507 28 CURVE SMOOTH",
"516 28 OFFCURVE",
"523 39 OFFCURVE",
"523 48 CURVE SMOOTH",
"523 57 OFFCURVE",
"516 64 OFFCURVE",
"507 67 CURVE",
"498 67 OFFCURVE",
"491 57 OFFCURVE",
"491 48 CURVE SMOOTH"
);
}
);
width = 585;
}
);
unicode = 006A;
},
{
glyphname = k;
lastChange = "2022-09-30 16:33:54 +0000";
layers = (
{
layerId = "B1BCE86B-A7FB-414A-B0E3-B1B1CA0865E7";
paths = (
{
closed = 1;
nodes = (
"30 120 OFFCURVE",
"52 141 OFFCURVE",
"78 141 CURVE SMOOTH",
"105 141 OFFCURVE",
"126 120 OFFCURVE",
"126 95 CURVE",
"126 95 LINE",
"164 68 OFFCURVE",
"213 43 OFFCURVE",
"267 43 CURVE SMOOTH",
"337 43 OFFCURVE",
"449 103 OFFCURVE",
"449 263 CURVE SMOOTH",
"449 423 OFFCURVE",
"337 479 OFFCURVE",
"267 479 CURVE SMOOTH",
"213 479 OFFCURVE",
"151 450 OFFCURVE",
"125 424 CURVE SMOOTH",
"125 424 OFFCURVE",
"125 424 OFFCURVE",
"125 424 CURVE",
"125 421 LINE",
"125 395 OFFCURVE",
"104 374 OFFCURVE",
"77 374 CURVE SMOOTH",
"51 374 OFFCURVE",
"30 395 OFFCURVE",
"30 421 CURVE SMOOTH",
"30 447 OFFCURVE",
"51 468 OFFCURVE",
"77 468 CURVE SMOOTH",
"86 468 OFFCURVE",
"94 466 OFFCURVE",
"101 462 CURVE",
"119 481 OFFCURVE",
"173 524 OFFCURVE",
"267 524 CURVE SMOOTH",
"387 524 OFFCURVE",
"496 415 OFFCURVE",
"496 263 CURVE SMOOTH",
"496 111 OFFCURVE",
"387 0 OFFCURVE",
"267 0 CURVE SMOOTH",
"178 0 OFFCURVE",
"127 36 OFFCURVE",
"105 56 CURVE",
"97 50 OFFCURVE",
"89 47 OFFCURVE",
"78 47 CURVE SMOOTH",
"52 47 OFFCURVE",
"30 68 OFFCURVE",
"30 94 CURVE SMOOTH"
);
},
{
closed = 1;
nodes = (
"60 413 OFFCURVE",
"67 405 OFFCURVE",
"77 405 CURVE SMOOTH",
"85 405 OFFCURVE",
"93 413 OFFCURVE",
"93 422 CURVE SMOOTH",
"93 432 OFFCURVE",
"85 439 OFFCURVE",
"77 439 CURVE SMOOTH",
"67 439 OFFCURVE",
"60 432 OFFCURVE",
"60 422 CURVE SMOOTH"
);
},
{
closed = 1;
nodes = (
"62 87 OFFCURVE",
"69 80 OFFCURVE",
"79 80 CURVE SMOOTH",
"88 80 OFFCURVE",
"95 87 OFFCURVE",
"95 96 CURVE SMOOTH",
"95 105 OFFCURVE",
"88 113 OFFCURVE",
"79 113 CURVE SMOOTH",
"69 113 OFFCURVE",
"62 105 OFFCURVE",
"62 96 CURVE SMOOTH"
);
}
);
width = 526;
}
);
unicode = 006B;
},
{
glyphname = l;
lastChange = "2022-09-30 16:34:29 +0000";
layers = (
{
layerId = "B1BCE86B-A7FB-414A-B0E3-B1B1CA0865E7";
paths = (
{
closed = 1;
nodes = (
"30 293 OFFCURVE",
"51 314 OFFCURVE",
"77 314 CURVE SMOOTH",
"81 314 OFFCURVE",
"85 313 OFFCURVE",
"89 312 CURVE",
"89 312 LINE",
"226 457 LINE",
"224 462 OFFCURVE",
"223 468 OFFCURVE",
"223 474 CURVE SMOOTH",
"223 499 OFFCURVE",
"244 520 OFFCURVE",
"271 520 CURVE SMOOTH",
"297 520 OFFCURVE",
"319 499 OFFCURVE",
"319 474 CURVE SMOOTH",
"319 447 OFFCURVE",
"297 426 OFFCURVE",
"271 426 CURVE SMOOTH",
"267 426 OFFCURVE",
"262 427 OFFCURVE",
"258 428 CURVE",
"129 290 LINE",
"364 290 LINE",
"364 290 LINE",
"372 304 OFFCURVE",
"387 313 OFFCURVE",
"405 313 CURVE SMOOTH",
"432 313 OFFCURVE",
"453 293 OFFCURVE",
"453 266 CURVE SMOOTH",
"453 241 OFFCURVE",
"432 218 OFFCURVE",
"405 218 CURVE SMOOTH",
"401 218 OFFCURVE",
"397 219 OFFCURVE",
"393 220 CURVE",
"186 0 LINE",
"154 30 LINE",
"354 242 LINE",
"118 242 LINE",
"110 229 OFFCURVE",
"95 219 OFFCURVE",
"77 219 CURVE SMOOTH",
"51 219 OFFCURVE",
"30 241 OFFCURVE",
"30 266 CURVE SMOOTH"
);
},
{
closed = 1;
nodes = (
"60 258 OFFCURVE",
"67 251 OFFCURVE",
"76 251 CURVE SMOOTH",
"85 251 OFFCURVE",
"92 258 OFFCURVE",
"92 268 CURVE SMOOTH",
"92 277 OFFCURVE",
"85 285 OFFCURVE",
"76 285 CURVE SMOOTH",
"67 285 OFFCURVE",
"60 277 OFFCURVE",
"60 268 CURVE SMOOTH"
);
},
{
closed = 1;
nodes = (
"252 465 OFFCURVE",
"260 458 OFFCURVE",
"269 458 CURVE SMOOTH",
"278 458 OFFCURVE",
"286 465 OFFCURVE",
"286 474 CURVE SMOOTH",
"286 483 OFFCURVE",
"278 491 OFFCURVE",
"269 491 CURVE SMOOTH",
"260 491 OFFCURVE",
"252 483 OFFCURVE",
"252 474 CURVE SMOOTH"
);
},
{
closed = 1;
nodes = (
"388 257 OFFCURVE",
"396 250 OFFCURVE",
"405 250 CURVE SMOOTH",
"414 250 OFFCURVE",
"421 257 OFFCURVE",
"421 266 CURVE SMOOTH",
"421 275 OFFCURVE",
"414 283 OFFCURVE",
"405 283 CURVE SMOOTH",
"396 283 OFFCURVE",
"388 275 OFFCURVE",
"388 266 CURVE SMOOTH"
);
}
);
width = 483;
}
);
unicode = 006C;
},
{
glyphname = m;
lastChange = "2022-09-30 16:35:05 +0000";
layers = (
{
layerId = "B1BCE86B-A7FB-414A-B0E3-B1B1CA0865E7";
paths = (
{
closed = 1;
nodes = (
"30 493 OFFCURVE",
"51 515 OFFCURVE",
"78 515 CURVE SMOOTH",
"104 515 OFFCURVE",
"125 493 OFFCURVE",
"125 468 CURVE",
"123 454 LINE",
"243 332 LINE",
"313 445 LINE",
"313 445 LINE",
"309 452 OFFCURVE",
"307 459 OFFCURVE",
"307 467 CURVE SMOOTH",
"307 493 OFFCURVE",
"329 514 OFFCURVE",
"355 514 CURVE SMOOTH",
"382 514 OFFCURVE",
"403 493 OFFCURVE",
"403 467 CURVE SMOOTH",
"403 448 OFFCURVE",
"392 432 OFFCURVE",
"376 424 CURVE",
"376 83 LINE",
"392 75 OFFCURVE",
"403 59 OFFCURVE",
"403 40 CURVE SMOOTH",
"403 14 OFFCURVE",
"382 -7 OFFCURVE",
"355 -7 CURVE SMOOTH",
"329 -7 OFFCURVE",
"307 14 OFFCURVE",
"307 40 CURVE SMOOTH",
"307 58 OFFCURVE",
"318 73 OFFCURVE",
"332 82 CURVE",
"332 390 LINE",
"90 0 LINE",
"51 24 LINE",
"219 295 LINE",
"92 423 LINE",
"87 421 OFFCURVE",
"83 420 OFFCURVE",
"78 420 CURVE SMOOTH",
"51 420 OFFCURVE",
"30 441 OFFCURVE",
"30 468 CURVE SMOOTH"
);
},
{
closed = 1;
nodes = (
"59 459 OFFCURVE",
"67 452 OFFCURVE",
"76 452 CURVE SMOOTH",
"85 452 OFFCURVE",
"92 459 OFFCURVE",
"92 468 CURVE SMOOTH",
"92 478 OFFCURVE",
"85 485 OFFCURVE",
"76 485 CURVE SMOOTH",
"67 485 OFFCURVE",
"59 478 OFFCURVE",
"59 468 CURVE SMOOTH"
);
},
{
closed = 1;
nodes = (
"338 459 OFFCURVE",
"345 451 OFFCURVE",
"354 451 CURVE SMOOTH",
"363 451 OFFCURVE",
"371 459 OFFCURVE",
"371 468 CURVE SMOOTH",
"371 477 OFFCURVE",
"363 484 OFFCURVE",
"354 484 CURVE SMOOTH",
"345 484 OFFCURVE",
"338 477 OFFCURVE",
"338 468 CURVE SMOOTH"
);
},
{
closed = 1;
nodes = (
"339 33 OFFCURVE",
"347 25 OFFCURVE",
"355 25 CURVE SMOOTH",
"365 25 OFFCURVE",
"372 33 OFFCURVE",
"372 42 CURVE SMOOTH",
"372 52 OFFCURVE",
"365 59 OFFCURVE",
"355 59 CURVE SMOOTH",
"347 59 OFFCURVE",
"339 52 OFFCURVE",
"339 42 CURVE SMOOTH"
);
}
);
width = 433;
}
);
unicode = 006D;
},
{
glyphname = n;
lastChange = "2022-09-30 16:35:35 +0000";
layers = (
{
layerId = "B1BCE86B-A7FB-414A-B0E3-B1B1CA0865E7";
paths = (
{
closed = 1;
nodes = (
"30 491 OFFCURVE",
"52 513 OFFCURVE",
"78 513 CURVE SMOOTH",
"104 513 OFFCURVE",
"125 491 OFFCURVE",
"125 466 CURVE",
"123 452 LINE",
"317 259 LINE",
"127 60 LINE",
"128 56 OFFCURVE",
"128 51 OFFCURVE",
"128 47 CURVE SMOOTH",
"128 21 OFFCURVE",
"107 0 OFFCURVE",
"80 0 CURVE SMOOTH",
"54 0 OFFCURVE",
"32 21 OFFCURVE",
"32 47 CURVE SMOOTH",
"32 73 OFFCURVE",
"54 94 OFFCURVE",
"80 94 CURVE SMOOTH",
"86 94 OFFCURVE",
"91 93 OFFCURVE",
"96 91 CURVE",
"255 257 LINE",
"92 421 LINE",
"88 419 OFFCURVE",
"83 419 OFFCURVE",
"78 419 CURVE SMOOTH",
"52 419 OFFCURVE",
"30 439 OFFCURVE",
"30 466 CURVE SMOOTH"
);
},
{
closed = 1;
nodes = (
"60 457 OFFCURVE",
"67 450 OFFCURVE",
"76 450 CURVE SMOOTH",
"85 450 OFFCURVE",
"92 457 OFFCURVE",
"92 467 CURVE SMOOTH",
"92 476 OFFCURVE",
"85 483 OFFCURVE",
"76 483 CURVE SMOOTH",
"67 483 OFFCURVE",
"60 476 OFFCURVE",
"60 467 CURVE SMOOTH"
);
},
{
closed = 1;
nodes = (
"64 39 OFFCURVE",
"72 32 OFFCURVE",
"81 32 CURVE SMOOTH",
"90 32 OFFCURVE",
"97 39 OFFCURVE",
"97 49 CURVE SMOOTH",
"97 59 OFFCURVE",
"90 66 OFFCURVE",
"81 66 CURVE SMOOTH",
"72 66 OFFCURVE",
"64 59 OFFCURVE",
"64 49 CURVE SMOOTH"
);
}
);
width = 347;
}
);
unicode = 006E;
},
{
glyphname = o;
lastChange = "2022-09-30 16:36:08 +0000";
layers = (
{
layerId = "B1BCE86B-A7FB-414A-B0E3-B1B1CA0865E7";
paths = (
{
closed = 1;
nodes = (
"30 498 OFFCURVE",
"51 520 OFFCURVE",
"78 520 CURVE SMOOTH",
"104 520 OFFCURVE",
"125 498 OFFCURVE",
"125 472 CURVE",
"124 466 LINE",
"290 348 LINE",
"323 441 LINE",
"313 450 OFFCURVE",
"306 463 OFFCURVE",
"306 476 CURVE SMOOTH",
"306 503 OFFCURVE",
"328 524 OFFCURVE",
"354 524 CURVE SMOOTH",
"381 524 OFFCURVE",
"402 503 OFFCURVE",
"402 476 CURVE SMOOTH",
"402 455 OFFCURVE",
"386 436 OFFCURVE",
"366 431 CURVE",
"321 304 LINE",
"103 0 LINE",
"67 26 LINE",
"270 309 LINE",
"99 430 LINE",
"93 427 OFFCURVE",
"86 425 OFFCURVE",
"78 425 CURVE SMOOTH",
"51 425 OFFCURVE",
"30 446 OFFCURVE",
"30 472 CURVE SMOOTH"
);
},
{
closed = 1;
nodes = (
"59 464 OFFCURVE",
"66 456 OFFCURVE",
"76 456 CURVE SMOOTH",
"85 456 OFFCURVE",
"92 464 OFFCURVE",
"92 473 CURVE SMOOTH",
"92 483 OFFCURVE",
"85 490 OFFCURVE",
"76 490 CURVE SMOOTH",
"66 490 OFFCURVE",
"59 483 OFFCURVE",
"59 473 CURVE SMOOTH"
);
},
{
closed = 1;
nodes = (
"336 468 OFFCURVE",
"344 460 OFFCURVE",
"353 460 CURVE SMOOTH",
"362 460 OFFCURVE",
"370 468 OFFCURVE",
"370 477 CURVE SMOOTH",
"370 487 OFFCURVE",
"362 495 OFFCURVE",
"353 495 CURVE SMOOTH",
"344 495 OFFCURVE",
"336 487 OFFCURVE",
"336 477 CURVE SMOOTH"
);
}
);
width = 432;
}
);
unicode = 006F;
},
{
glyphname = p;
lastChange = "2022-09-30 16:36:43 +0000";
layers = (
{
layerId = "B1BCE86B-A7FB-414A-B0E3-B1B1CA0865E7";
paths = (
{
closed = 1;
nodes = (
"30 449 OFFCURVE",
"102 525 OFFCURVE",
"166 525 CURVE SMOOTH",
"230 525 OFFCURVE",
"289 470 OFFCURVE",
"289 346 CURVE SMOOTH",
"289 273 OFFCURVE",
"219 128 OFFCURVE",
"198 81 CURVE SMOOTH",
"198 81 LINE",
"206 73 OFFCURVE",
"212 61 OFFCURVE",
"212 47 CURVE SMOOTH",
"212 21 OFFCURVE",
"191 0 OFFCURVE",
"165 0 CURVE SMOOTH",
"138 0 OFFCURVE",
"118 21 OFFCURVE",
"118 47 CURVE SMOOTH",
"118 70 OFFCURVE",
"134 89 OFFCURVE",
"156 93 CURVE",
"168 118 OFFCURVE",
"247 281 OFFCURVE",
"247 341 CURVE SMOOTH",
"247 393 OFFCURVE",
"230 470 OFFCURVE",
"166 472 CURVE SMOOTH",
"102 473 OFFCURVE",
"78 420 OFFCURVE",
"78 394 CURVE SMOOTH",
"78 368 OFFCURVE",
"91 321 OFFCURVE",
"123 321 CURVE SMOOTH",
"155 321 OFFCURVE",
"150 349 OFFCURVE",
"150 361 CURVE SMOOTH",
"150 377 OFFCURVE",
"164 380 OFFCURVE",
"172 380 CURVE SMOOTH",
"178 380 OFFCURVE",
"194 380 OFFCURVE",
"194 360 CURVE SMOOTH",
"194 309 OFFCURVE",
"163 269 OFFCURVE",
"123 269 CURVE SMOOTH",
"83 269 OFFCURVE",
"30 333 OFFCURVE",
"30 393 CURVE SMOOTH"
);
},
{
closed = 1;
nodes = (
"148 38 OFFCURVE",
"155 31 OFFCURVE",
"164 31 CURVE SMOOTH",
"174 31 OFFCURVE",
"181 38 OFFCURVE",
"181 48 CURVE SMOOTH",
"181 57 OFFCURVE",
"174 65 OFFCURVE",
"164 65 CURVE SMOOTH",
"155 65 OFFCURVE",
"148 57 OFFCURVE",
"148 48 CURVE SMOOTH"
);
}
);
width = 319;
}
);
unicode = 0070;
},
{
glyphname = q;
lastChange = "2022-09-30 16:37:18 +0000";
layers = (
{
layerId = "B1BCE86B-A7FB-414A-B0E3-B1B1CA0865E7";
paths = (
{
closed = 1;
nodes = (
"30 492 OFFCURVE",
"51 512 OFFCURVE",
"77 512 CURVE",
"107 503 LINE",
"107 503 LINE",
"131 512 OFFCURVE",
"183 529 OFFCURVE",
"212 524 CURVE SMOOTH",
"249 516 OFFCURVE",
"327 467 OFFCURVE",
"359 446 CURVE",
"359 446 LINE",
"366 448 OFFCURVE",
"372 450 OFFCURVE",
"379 450 CURVE SMOOTH",
"406 450 OFFCURVE",
"427 428 OFFCURVE",
"427 403 CURVE SMOOTH",
"427 376 OFFCURVE",
"406 356 OFFCURVE",
"379 356 CURVE SMOOTH",
"353 356 OFFCURVE",
"332 376 OFFCURVE",
"332 403 CURVE SMOOTH",
"332 408 OFFCURVE",
"333 412 OFFCURVE",
"335 416 CURVE",
"245 464 LINE",
"245 88 LINE",
"260 80 OFFCURVE",
"271 65 OFFCURVE",
"271 47 CURVE SMOOTH",
"271 21 OFFCURVE",
"249 0 OFFCURVE",
"223 0 CURVE SMOOTH",
"196 0 OFFCURVE",
"175 21 OFFCURVE",
"175 47 CURVE SMOOTH",
"175 65 OFFCURVE",
"186 81 OFFCURVE",
"201 89 CURVE",
"201 472 LINE",
"174 469 OFFCURVE",
"140 459 OFFCURVE",
"123 453 CURVE",
"118 432 OFFCURVE",
"99 418 OFFCURVE",
"77 418 CURVE SMOOTH",
"51 418 OFFCURVE",
"30 439 OFFCURVE",
"30 465 CURVE SMOOTH"
);
},
{
closed = 1;
nodes = (
"59 457 OFFCURVE",
"67 449 OFFCURVE",
"76 449 CURVE SMOOTH",
"85 449 OFFCURVE",
"92 457 OFFCURVE",
"92 466 CURVE SMOOTH",
"92 476 OFFCURVE",
"85 483 OFFCURVE",
"76 483 CURVE SMOOTH",
"67 483 OFFCURVE",
"59 476 OFFCURVE",
"59 466 CURVE SMOOTH"
);
},
{
closed = 1;
nodes = (
"207 40 OFFCURVE",
"215 32 OFFCURVE",
"223 32 CURVE SMOOTH",
"233 32 OFFCURVE",
"240 40 OFFCURVE",
"240 49 CURVE SMOOTH",
"240 58 OFFCURVE",
"233 66 OFFCURVE",
"223 66 CURVE SMOOTH",
"215 66 OFFCURVE",
"207 58 OFFCURVE",
"207 49 CURVE SMOOTH"
);
},
{
closed = 1;
nodes = (
"362 394 OFFCURVE",
"369 387 OFFCURVE",
"379 387 CURVE SMOOTH",
"387 387 OFFCURVE",
"395 394 OFFCURVE",
"395 404 CURVE SMOOTH",
"395 413 OFFCURVE",
"387 420 OFFCURVE",
"379 420 CURVE SMOOTH",
"369 420 OFFCURVE",
"362 413 OFFCURVE",
"362 404 CURVE SMOOTH"
);
}
);
width = 457;
}
);
unicode = 0071;
},
{
glyphname = r;
lastChange = "2022-09-30 16:37:51 +0000";
layers = (
{
layerId = "B1BCE86B-A7FB-414A-B0E3-B1B1CA0865E7";
paths = (
{
closed = 1;
nodes = (
"30 477 OFFCURVE",
"52 499 OFFCURVE",
"78 499 CURVE SMOOTH",
"97 499 OFFCURVE",
"112 488 OFFCURVE",
"120 474 CURVE",
"120 474 LINE",
"545 474 LINE",
"545 430 LINE",
"545 430 LINE",
"381 0 LINE",
"340 16 LINE",
"498 430 LINE",
"121 430 LINE",
"113 415 OFFCURVE",
"97 404 OFFCURVE",
"78 404 CURVE SMOOTH",
"52 404 OFFCURVE",
"30 425 OFFCURVE",
"30 452 CURVE SMOOTH"
);
},
{
closed = 1;
nodes = (
"60 443 OFFCURVE",
"67 436 OFFCURVE",
"77 436 CURVE SMOOTH",
"86 436 OFFCURVE",
"93 443 OFFCURVE",
"93 452 CURVE SMOOTH",
"93 462 OFFCURVE",
"86 469 OFFCURVE",
"77 469 CURVE SMOOTH",
"67 469 OFFCURVE",
"60 462 OFFCURVE",
"60 452 CURVE SMOOTH"
);
}
);
width = 575;
}
);
unicode = 0072;
},
{
glyphname = s;
lastChange = "2022-09-30 16:41:15 +0000";
layers = (
{
layerId = "B1BCE86B-A7FB-414A-B0E3-B1B1CA0865E7";
paths = (
{
closed = 1;
nodes = (
"28 392 OFFCURVE",
"44 423 OFFCURVE",
"62 440 CURVE SMOOTH",
"62 440 LINE",
"56 448 OFFCURVE",
"52 457 OFFCURVE",
"52 468 CURVE SMOOTH",
"52 493 OFFCURVE",
"74 515 OFFCURVE",
"100 515 CURVE SMOOTH",
"117 515 OFFCURVE",
"132 506 OFFCURVE",
"140 493 CURVE",
"140 493 LINE",
"348 493 LINE",
"357 505 OFFCURVE",
"373 513 OFFCURVE",
"389 513 CURVE SMOOTH",
"416 513 OFFCURVE",
"437 492 OFFCURVE",
"437 466 CURVE SMOOTH",
"437 456 OFFCURVE",
"434 447 OFFCURVE",
"428 438 CURVE",
"428 438 LINE",
"440 421 OFFCURVE",
"462 384 OFFCURVE",
"461 330 CURVE SMOOTH",
"460 281 OFFCURVE",
"463 277 OFFCURVE",
"462 214 CURVE SMOOTH",
"461 129 OFFCURVE",
"368 0 OFFCURVE",
"296 0 CURVE SMOOTH",
"200 0 LINE SMOOTH",
"128 0 OFFCURVE",
"36 124 OFFCURVE",
"32 214 CURVE SMOOTH",
"28 283 OFFCURVE",
"31 288 OFFCURVE",
"30 330 CURVE SMOOTH"
);
},
{
closed = 1;
nodes = (
"82 314 OFFCURVE",
"82 271 OFFCURVE",
"84 216 CURVE SMOOTH",
"86 130 OFFCURVE",
"161 54 OFFCURVE",
"204 53 CURVE SMOOTH",
"246 52 OFFCURVE",
"255 52 OFFCURVE",
"292 53 CURVE SMOOTH",
"338 54 OFFCURVE",
"406 130 OFFCURVE",
"408 216 CURVE SMOOTH",
"410 269 OFFCURVE",
"408 313 OFFCURVE",
"408 354 CURVE SMOOTH",
"408 383 OFFCURVE",
"395 406 OFFCURVE",
"387 419 CURVE",
"369 420 OFFCURVE",
"359 430 OFFCURVE",
"350 444 CURVE",
"142 444 LINE",
"134 430 OFFCURVE",
"118 420 OFFCURVE",
"100 420 CURVE SMOOTH",
"100 420 LINE",
"93 410 OFFCURVE",
"82 388 OFFCURVE",
"82 354 CURVE SMOOTH"
);
},
{
closed = 1;
nodes = (
"83 460 OFFCURVE",
"90 452 OFFCURVE",
"99 452 CURVE SMOOTH",
"108 452 OFFCURVE",
"116 460 OFFCURVE",
"116 468 CURVE SMOOTH",
"116 478 OFFCURVE",
"108 485 OFFCURVE",
"99 485 CURVE SMOOTH",
"90 485 OFFCURVE",
"83 478 OFFCURVE",
"83 468 CURVE SMOOTH"
);
},
{
closed = 1;
nodes = (
"371 457 OFFCURVE",
"379 450 OFFCURVE",
"388 450 CURVE SMOOTH",
"396 450 OFFCURVE",
"404 457 OFFCURVE",
"404 467 CURVE SMOOTH",
"404 476 OFFCURVE",
"396 484 OFFCURVE",
"388 484 CURVE SMOOTH",
"379 484 OFFCURVE",
"371 476 OFFCURVE",
"371 467 CURVE SMOOTH"
);
}
);
width = 492;
}
);
unicode = 0073;
},
{
glyphname = t;
lastChange = "2022-09-30 16:41:46 +0000";
layers = (
{
layerId = "B1BCE86B-A7FB-414A-B0E3-B1B1CA0865E7";
paths = (
{
closed = 1;
nodes = (
"30 501 OFFCURVE",
"52 523 OFFCURVE",
"78 523 CURVE SMOOTH",
"97 523 OFFCURVE",
"113 512 OFFCURVE",
"121 497 CURVE",
"319 497 LINE",
"327 512 OFFCURVE",
"343 521 OFFCURVE",
"361 521 CURVE SMOOTH",
"387 521 OFFCURVE",
"409 500 OFFCURVE",
"409 474 CURVE SMOOTH",
"409 448 OFFCURVE",
"387 427 OFFCURVE",
"361 427 CURVE SMOOTH",
"342 427 OFFCURVE",
"326 437 OFFCURVE",
"318 453 CURVE",
"243 453 LINE",
"243 89 LINE",
"258 81 OFFCURVE",
"268 66 OFFCURVE",
"268 48 CURVE SMOOTH",
"268 22 OFFCURVE",
"246 0 OFFCURVE",
"220 0 CURVE SMOOTH",
"194 0 OFFCURVE",
"173 22 OFFCURVE",
"173 48 CURVE SMOOTH",
"173 67 OFFCURVE",
"183 83 OFFCURVE",
"199 90 CURVE",
"199 453 LINE",
"121 453 LINE",
"113 438 OFFCURVE",
"97 428 OFFCURVE",
"78 428 CURVE SMOOTH",
"52 428 OFFCURVE",
"30 449 OFFCURVE",
"30 476 CURVE SMOOTH"
);
},
{
closed = 1;
nodes = (
"61 467 OFFCURVE",
"68 460 OFFCURVE",
"77 460 CURVE SMOOTH",
"86 460 OFFCURVE",
"94 467 OFFCURVE",
"94 476 CURVE SMOOTH",
"94 486 OFFCURVE",
"86 493 OFFCURVE",
"77 493 CURVE SMOOTH",
"68 493 OFFCURVE",
"61 486 OFFCURVE",
"61 476 CURVE SMOOTH"
);
},
{
closed = 1;
nodes = (
"205 40 OFFCURVE",
"212 33 OFFCURVE",
"221 33 CURVE SMOOTH",
"230 33 OFFCURVE",
"238 40 OFFCURVE",
"238 50 CURVE SMOOTH",
"238 59 OFFCURVE",
"230 67 OFFCURVE",
"221 67 CURVE SMOOTH",
"212 67 OFFCURVE",
"205 59 OFFCURVE",
"205 50 CURVE SMOOTH"
);
},
{
closed = 1;
nodes = (
"342 466 OFFCURVE",
"350 458 OFFCURVE",
"359 458 CURVE SMOOTH",
"368 458 OFFCURVE",
"376 466 OFFCURVE",
"376 475 CURVE SMOOTH",
"376 484 OFFCURVE",
"368 492 OFFCURVE",
"359 492 CURVE SMOOTH",
"350 492 OFFCURVE",
"342 484 OFFCURVE",
"342 475 CURVE SMOOTH"
);
}
);
width = 439;
}
);
unicode = 0074;
},
{
glyphname = u;
lastChange = "2022-09-30 16:42:16 +0000";
layers = (
{
layerId = "B1BCE86B-A7FB-414A-B0E3-B1B1CA0865E7";
paths = (
{
closed = 1;
nodes = (
"30 462 OFFCURVE",
"52 483 OFFCURVE",
"78 483 CURVE SMOOTH",
"104 483 OFFCURVE",
"126 462 OFFCURVE",
"126 436 CURVE SMOOTH",
"126 417 OFFCURVE",
"116 402 OFFCURVE",
"100 394 CURVE",
"100 0 LINE",
"56 0 LINE",
"56 394 LINE",
"40 402 OFFCURVE",
"30 418 OFFCURVE",
"30 436 CURVE SMOOTH"
);
},
{
closed = 1;
nodes = (
"60 428 OFFCURVE",
"68 420 OFFCURVE",
"76 420 CURVE SMOOTH",
"86 420 OFFCURVE",
"93 428 OFFCURVE",
"93 437 CURVE SMOOTH",
"93 446 OFFCURVE",
"86 454 OFFCURVE",
"76 454 CURVE SMOOTH",
"68 454 OFFCURVE",
"60 446 OFFCURVE",
"60 437 CURVE SMOOTH"
);
}
);
width = 156;
}
);
unicode = 0075;
},
{
glyphname = v;
lastChange = "2022-09-30 16:42:29 +0000";
layers = (
{
layerId = "B1BCE86B-A7FB-414A-B0E3-B1B1CA0865E7";
paths = (
{
closed = 1;
nodes = (
"30 462 OFFCURVE",
"52 483 OFFCURVE",
"78 483 CURVE SMOOTH",
"104 483 OFFCURVE",
"126 462 OFFCURVE",
"126 436 CURVE SMOOTH",
"126 417 OFFCURVE",
"116 402 OFFCURVE",
"100 394 CURVE",
"100 0 LINE",
"56 0 LINE",
"56 394 LINE",
"40 402 OFFCURVE",
"30 418 OFFCURVE",
"30 436 CURVE SMOOTH"
);
},
{
closed = 1;
nodes = (
"60 428 OFFCURVE",
"68 420 OFFCURVE",
"76 420 CURVE SMOOTH",
"86 420 OFFCURVE",
"93 428 OFFCURVE",
"93 437 CURVE SMOOTH",
"93 446 OFFCURVE",
"86 454 OFFCURVE",
"76 454 CURVE SMOOTH",
"68 454 OFFCURVE",
"60 446 OFFCURVE",
"60 437 CURVE SMOOTH"
);
}
);
width = 156;
}
);
unicode = 0076;
},
{
glyphname = w;
lastChange = "2022-09-30 16:42:40 +0000";
layers = (
{
layerId = "B1BCE86B-A7FB-414A-B0E3-B1B1CA0865E7";
paths = (
{
closed = 1;
nodes = (
"30 462 OFFCURVE",
"52 483 OFFCURVE",
"78 483 CURVE SMOOTH",
"104 483 OFFCURVE",
"126 462 OFFCURVE",
"126 436 CURVE SMOOTH",
"126 417 OFFCURVE",
"116 402 OFFCURVE",
"100 394 CURVE",
"100 0 LINE",
"56 0 LINE",
"56 394 LINE",
"40 402 OFFCURVE",
"30 418 OFFCURVE",
"30 436 CURVE SMOOTH"
);
},
{
closed = 1;
nodes = (
"60 428 OFFCURVE",
"68 420 OFFCURVE",
"76 420 CURVE SMOOTH",
"86 420 OFFCURVE",
"93 428 OFFCURVE",
"93 437 CURVE SMOOTH",
"93 446 OFFCURVE",
"86 454 OFFCURVE",
"76 454 CURVE SMOOTH",
"68 454 OFFCURVE",
"60 446 OFFCURVE",
"60 437 CURVE SMOOTH"
);
}
);
width = 156;
}
);
unicode = 0077;
},
{
glyphname = x;
lastChange = "2022-09-30 16:43:07 +0000";
layers = (
{
layerId = "B1BCE86B-A7FB-414A-B0E3-B1B1CA0865E7";
paths = (
{
closed = 1;
nodes = (
"30 366 OFFCURVE",
"56 419 OFFCURVE",
"66 438 CURVE SMOOTH",
"66 438 LINE",
"60 446 OFFCURVE",
"56 456 OFFCURVE",
"56 467 CURVE SMOOTH",
"56 493 OFFCURVE",
"78 514 OFFCURVE",
"104 514 CURVE SMOOTH",
"131 514 OFFCURVE",
"152 493 OFFCURVE",
"152 467 CURVE SMOOTH",
"152 441 OFFCURVE",
"131 420 OFFCURVE",
"104 420 CURVE SMOOTH",
"104 420 LINE",
"96 394 OFFCURVE",
"80 337 OFFCURVE",
"80 272 CURVE SMOOTH",
"80 206 OFFCURVE",
"107 68 OFFCURVE",
"228 53 CURVE",
"228 429 LINE",
"214 437 OFFCURVE",
"204 453 OFFCURVE",
"204 469 CURVE SMOOTH",
"204 496 OFFCURVE",
"226 517 OFFCURVE",
"252 517 CURVE SMOOTH",
"279 517 OFFCURVE",
"300 496 OFFCURVE",
"300 469 CURVE SMOOTH",
"300 451 OFFCURVE",
"289 437 OFFCURVE",
"273 429 CURVE",
"272 53 LINE",
"393 67 OFFCURVE",
"420 206 OFFCURVE",
"420 272 CURVE SMOOTH",
"420 338 OFFCURVE",
"400 398 OFFCURVE",
"391 423 CURVE SMOOTH",
"388 431 OFFCURVE",
"391 423 OFFCURVE",
"391 423 CURVE",
"391 423 LINE",
"366 423 OFFCURVE",
"347 445 OFFCURVE",
"347 470 CURVE SMOOTH",
"347 496 OFFCURVE",
"368 517 OFFCURVE",
"394 517 CURVE SMOOTH",
"420 517 OFFCURVE",
"442 496 OFFCURVE",
"442 470 CURVE SMOOTH",
"442 458 OFFCURVE",
"437 447 OFFCURVE",
"430 439 CURVE",
"440 417 OFFCURVE",
"461 361 OFFCURVE",
"461 276 CURVE SMOOTH",
"461 75 OFFCURVE",
"353 0 OFFCURVE",
"249 0 CURVE SMOOTH",
"145 0 OFFCURVE",
"30 102 OFFCURVE",
"30 276 CURVE SMOOTH"
);
},
{
closed = 1;
nodes = (
"87 459 OFFCURVE",
"94 451 OFFCURVE",
"103 451 CURVE SMOOTH",
"112 451 OFFCURVE",
"120 459 OFFCURVE",
"120 468 CURVE SMOOTH",
"120 477 OFFCURVE",
"112 485 OFFCURVE",
"103 485 CURVE SMOOTH",
"94 485 OFFCURVE",
"87 477 OFFCURVE",
"87 468 CURVE SMOOTH"
);
},
{
closed = 1;
nodes = (
"235 461 OFFCURVE",
"242 453 OFFCURVE",
"252 453 CURVE SMOOTH",
"260 453 OFFCURVE",
"268 461 OFFCURVE",
"268 470 CURVE SMOOTH",
"268 480 OFFCURVE",
"260 487 OFFCURVE",
"252 487 CURVE SMOOTH",
"242 487 OFFCURVE",
"235 480 OFFCURVE",
"235 470 CURVE SMOOTH"
);
},
{
closed = 1;
nodes = (
"376 461 OFFCURVE",
"384 454 OFFCURVE",
"392 454 CURVE SMOOTH",
"402 454 OFFCURVE",
"409 461 OFFCURVE",
"409 471 CURVE SMOOTH",
"409 481 OFFCURVE",
"402 488 OFFCURVE",
"392 488 CURVE SMOOTH",
"384 488 OFFCURVE",
"376 481 OFFCURVE",
"376 471 CURVE SMOOTH"
);
}
);
width = 491;
}
);
unicode = 0078;
},
{
glyphname = y;
lastChange = "2019-12-20 16:40:59 +0000";
layers = (
{
layerId = "B1BCE86B-A7FB-414A-B0E3-B1B1CA0865E7";
paths = (
{
closed = 1;
nodes = (
"30 70 OFFCURVE",
"50 89 OFFCURVE",
"75 89 CURVE SMOOTH",
"100 89 OFFCURVE",
"120 70 OFFCURVE",
"120 45 CURVE SMOOTH",
"120 21 OFFCURVE",
"100 1 OFFCURVE",
"75 1 CURVE SMOOTH",
"50 1 OFFCURVE",
"30 21 OFFCURVE",
"30 45 CURVE SMOOTH"
);
},
{
closed = 1;
nodes = (
"60 38 OFFCURVE",
"67 32 OFFCURVE",
"76 32 CURVE SMOOTH",
"84 32 OFFCURVE",
"91 38 OFFCURVE",
"91 47 CURVE SMOOTH",
"91 56 OFFCURVE",
"84 63 OFFCURVE",
"76 63 CURVE SMOOTH",
"67 63 OFFCURVE",
"60 56 OFFCURVE",
"60 47 CURVE SMOOTH"
);
},
{
closed = 1;
nodes = (
"244 441 LINE",
"281 423 LINE",
"108 62 LINE",
"71 80 LINE"
);
},
{
closed = 1;
nodes = (
"112 69 LINE",
"449 69 LINE",
"449 23 LINE",
"112 23 LINE"
);
},
{
closed = 1;
nodes = (
"233 473 OFFCURVE",
"253 492 OFFCURVE",
"278 492 CURVE SMOOTH",
"303 492 OFFCURVE",
"322 473 OFFCURVE",
"322 448 CURVE SMOOTH",
"322 424 OFFCURVE",
"303 403 OFFCURVE",
"278 403 CURVE SMOOTH",
"253 403 OFFCURVE",
"233 424 OFFCURVE",
"233 448 CURVE SMOOTH"
);
},
{
closed = 1;
nodes = (
"261 440 OFFCURVE",
"268 434 OFFCURVE",
"277 434 CURVE SMOOTH",
"285 434 OFFCURVE",
"292 440 OFFCURVE",
"292 449 CURVE SMOOTH",
"292 458 OFFCURVE",
"285 465 OFFCURVE",
"277 465 CURVE SMOOTH",
"268 465 OFFCURVE",
"261 458 OFFCURVE",
"261 449 CURVE SMOOTH"
);
},
{
closed = 1;
nodes = (
"310 440 LINE",
"485 80 LINE",
"448 62 LINE",
"273 423 LINE"
);
},
{
closed = 1;
nodes = (
"434 70 OFFCURVE",
"454 91 OFFCURVE",
"479 91 CURVE",
"479 89 LINE",
"503 89 OFFCURVE",
"524 70 OFFCURVE",
"524 45 CURVE SMOOTH",
"524 21 OFFCURVE",
"503 1 OFFCURVE",
"479 1 CURVE SMOOTH",
"454 1 OFFCURVE",
"434 21 OFFCURVE",
"434 45 CURVE SMOOTH"
);
},
{
closed = 1;
nodes = (
"463 37 OFFCURVE",
"470 27 OFFCURVE",
"479 27 CURVE SMOOTH",
"487 27 OFFCURVE",
"494 37 OFFCURVE",
"494 45 CURVE SMOOTH",
"494 54 OFFCURVE",
"487 61 OFFCURVE",
"479 63 CURVE",
"470 63 OFFCURVE",
"463 54 OFFCURVE",
"463 45 CURVE SMOOTH"
);
}
);
width = 554;
}
);
unicode = 0079;
},
{
glyphname = z;
lastChange = "2022-09-30 16:31:49 +0000";
layers = (
{
layerId = "B1BCE86B-A7FB-414A-B0E3-B1B1CA0865E7";
paths = (
{
closed = 1;
nodes = (
"30 501 OFFCURVE",
"52 522 OFFCURVE",
"78 522 CURVE SMOOTH",
"105 522 OFFCURVE",
"126 501 OFFCURVE",
"126 475 CURVE",
"123 461 LINE",
"246 338 LINE",
"360 463 LINE",
"359 467 OFFCURVE",
"359 471 OFFCURVE",
"359 474 CURVE SMOOTH",
"359 500 OFFCURVE",
"380 521 OFFCURVE",
"406 521 CURVE SMOOTH",
"433 521 OFFCURVE",
"454 500 OFFCURVE",
"454 474 CURVE SMOOTH",
"454 447 OFFCURVE",
"433 426 OFFCURVE",
"406 426 CURVE SMOOTH",
"400 426 OFFCURVE",
"394 427 OFFCURVE",
"388 430 CURVE",
"274 309 LINE",
"537 45 LINE",
"537 0 LINE",
"46 0 LINE",
"46 45 LINE",
"475 45 LINE",
"92 431 LINE",
"88 429 OFFCURVE",
"83 428 OFFCURVE",
"78 428 CURVE SMOOTH",
"52 428 OFFCURVE",
"30 449 OFFCURVE",
"30 475 CURVE SMOOTH"
);
},
{
closed = 1;
nodes = (
"61 467 OFFCURVE",
"67 459 OFFCURVE",
"76 459 CURVE SMOOTH",
"86 459 OFFCURVE",
"93 467 OFFCURVE",
"93 476 CURVE SMOOTH",
"93 485 OFFCURVE",
"86 493 OFFCURVE",
"76 493 CURVE SMOOTH",
"67 493 OFFCURVE",
"61 485 OFFCURVE",
"61 476 CURVE SMOOTH"
);
},
{
closed = 1;
nodes = (
"389 466 OFFCURVE",
"396 458 OFFCURVE",
"406 458 CURVE SMOOTH",
"414 458 OFFCURVE",
"422 466 OFFCURVE",
"422 475 CURVE SMOOTH",
"422 484 OFFCURVE",
"414 491 OFFCURVE",
"406 491 CURVE SMOOTH",
"396 491 OFFCURVE",
"389 484 OFFCURVE",
"389 475 CURVE SMOOTH"
);
}
);
width = 567;
}
);
unicode = 007A;
},
{
glyphname = zero;
lastChange = "2022-09-30 16:50:40 +0000";
layers = (
{
layerId = "B1BCE86B-A7FB-414A-B0E3-B1B1CA0865E7";
paths = (
{
closed = 1;
nodes = (
"30 507 OFFCURVE",
"143 662 OFFCURVE",
"293 662 CURVE SMOOTH",
"294 662 LINE",
"301 682 OFFCURVE",
"320 695 OFFCURVE",
"342 695 CURVE SMOOTH",
"365 695 OFFCURVE",
"384 680 OFFCURVE",
"391 660 CURVE",
"391 660 LINE",
"541 660 OFFCURVE",
"651 505 OFFCURVE",
"651 348 CURVE SMOOTH",
"651 190 OFFCURVE",
"538 59 OFFCURVE",
"390 34 CURVE",
"390 34 LINE",
"383 14 OFFCURVE",
"364 0 OFFCURVE",
"341 0 CURVE SMOOTH",
"319 0 OFFCURVE",
"300 15 OFFCURVE",
"293 35 CURVE",
"144 58 OFFCURVE",
"30 189 OFFCURVE",
"30 348 CURVE SMOOTH"
);
},
{
closed = 1;
nodes = (
"71 212 OFFCURVE",
"168 99 OFFCURVE",
"298 78 CURVE",
"307 92 OFFCURVE",
"323 102 OFFCURVE",
"341 102 CURVE SMOOTH",
"359 102 OFFCURVE",
"375 93 OFFCURVE",
"385 79 CURVE",
"511 100 OFFCURVE",
"608 214 OFFCURVE",
"608 351 CURVE SMOOTH",
"608 485 OFFCURVE",
"514 598 OFFCURVE",
"389 621 CURVE",
"380 605 OFFCURVE",
"363 593 OFFCURVE",
"342 593 CURVE SMOOTH",
"322 593 OFFCURVE",
"303 605 OFFCURVE",
"295 623 CURVE",
"167 601 OFFCURVE",
"71 488 OFFCURVE",
"71 351 CURVE SMOOTH"
);
},
{
closed = 1;
nodes = (
"322 636 OFFCURVE",
"331 627 OFFCURVE",
"340 627 CURVE SMOOTH",
"351 627 OFFCURVE",
"358 636 OFFCURVE",
"358 645 CURVE SMOOTH",
"358 656 OFFCURVE",
"351 663 OFFCURVE",
"340 663 CURVE SMOOTH",
"331 663 OFFCURVE",
"322 656 OFFCURVE",
"322 645 CURVE SMOOTH"
);
},
{
closed = 1;
nodes = (
"323 42 OFFCURVE",
"331 33 OFFCURVE",
"340 33 CURVE SMOOTH",
"351 33 OFFCURVE",
"358 42 OFFCURVE",
"358 51 CURVE SMOOTH",
"358 62 OFFCURVE",
"351 69 OFFCURVE",
"340 69 CURVE SMOOTH",
"331 69 OFFCURVE",
"323 62 OFFCURVE",
"323 51 CURVE SMOOTH"
);
}
);
width = 681;
}
);
unicode = 0030;
},
{
glyphname = one;
lastChange = "2022-09-30 16:52:03 +0000";
layers = (
{
layerId = "B1BCE86B-A7FB-414A-B0E3-B1B1CA0865E7";
paths = (
{
closed = 1;
nodes = (
"152 675 OFFCURVE",
"182 705 OFFCURVE",
"218 705 CURVE SMOOTH",
"255 705 OFFCURVE",
"283 675 OFFCURVE",
"283 640 CURVE SMOOTH",
"283 633 OFFCURVE",
"282 627 OFFCURVE",
"280 621 CURVE",
"772 126 LINE",
"780 128 OFFCURVE",
"788 130 OFFCURVE",
"796 130 CURVE SMOOTH",
"832 130 OFFCURVE",
"862 101 OFFCURVE",
"862 65 CURVE SMOOTH",
"862 29 OFFCURVE",
"832 0 OFFCURVE",
"796 0 CURVE SMOOTH",
"760 0 OFFCURVE",
"730 29 OFFCURVE",
"730 65 CURVE SMOOTH",
"730 71 OFFCURVE",
"731 76 OFFCURVE",
"732 82 CURVE",
"238 578 LINE",
"232 576 OFFCURVE",
"225 575 OFFCURVE",
"218 575 CURVE SMOOTH",
"182 575 OFFCURVE",
"152 604 OFFCURVE",
"152 640 CURVE SMOOTH"
);
},
{
closed = 1;
nodes = (
"156 100 OFFCURVE",
"185 128 OFFCURVE",
"222 128 CURVE SMOOTH",
"258 128 OFFCURVE",
"288 100 OFFCURVE",
"288 65 CURVE SMOOTH",
"288 28 OFFCURVE",
"258 0 OFFCURVE",
"222 0 CURVE SMOOTH",
"185 0 OFFCURVE",
"156 28 OFFCURVE",
"156 65 CURVE SMOOTH"
);
},
{
closed = 1;
nodes = (
"193 628 OFFCURVE",
"203 618 OFFCURVE",
"216 618 CURVE SMOOTH",
"228 618 OFFCURVE",
"238 628 OFFCURVE",
"238 641 CURVE SMOOTH",
"238 654 OFFCURVE",
"228 664 OFFCURVE",
"216 664 CURVE SMOOTH",
"203 664 OFFCURVE",
"193 654 OFFCURVE",
"193 641 CURVE SMOOTH"
);
},
{
closed = 1;
nodes = (
"200 54 OFFCURVE",
"210 44 OFFCURVE",
"223 44 CURVE SMOOTH",
"235 44 OFFCURVE",
"245 54 OFFCURVE",
"245 67 CURVE SMOOTH",
"245 80 OFFCURVE",
"235 90 OFFCURVE",
"223 90 CURVE SMOOTH",
"210 90 OFFCURVE",
"200 80 OFFCURVE",
"200 67 CURVE SMOOTH"
);
},
{
closed = 1;
nodes = (
"718 676 OFFCURVE",
"747 706 OFFCURVE",
"784 706 CURVE SMOOTH",
"820 706 OFFCURVE",
"850 676 OFFCURVE",
"850 641 CURVE SMOOTH",
"850 605 OFFCURVE",
"820 576 OFFCURVE",
"784 576 CURVE SMOOTH",
"747 576 OFFCURVE",
"718 605 OFFCURVE",
"718 641 CURVE SMOOTH"
);
},
{
closed = 1;
nodes = (
"760 629 OFFCURVE",
"769 619 OFFCURVE",
"782 619 CURVE SMOOTH",
"795 619 OFFCURVE",
"805 629 OFFCURVE",
"805 642 CURVE SMOOTH",
"805 655 OFFCURVE",
"795 665 OFFCURVE",
"782 665 CURVE SMOOTH",
"769 665 OFFCURVE",
"760 655 OFFCURVE",
"760 642 CURVE SMOOTH"
);
},
{
closed = 1;
nodes = (
"773 53 OFFCURVE",
"783 43 OFFCURVE",
"795 43 CURVE SMOOTH",
"808 43 OFFCURVE",
"818 53 OFFCURVE",
"818 66 CURVE SMOOTH",
"818 79 OFFCURVE",
"808 89 OFFCURVE",
"795 89 CURVE SMOOTH",
"783 89 OFFCURVE",
"773 79 OFFCURVE",
"773 66 CURVE SMOOTH"
);
}
);
width = 1000;
}
);
unicode = 0031;
},
{
glyphname = two;
lastChange = "2022-09-30 16:55:38 +0000";
layers = (
{
layerId = "B1BCE86B-A7FB-414A-B0E3-B1B1CA0865E7";
paths = (
{
closed = 1;
nodes = (
"30 88 OFFCURVE",
"56 114 OFFCURVE",
"87 114 CURVE SMOOTH",
"107 114 OFFCURVE",
"125 104 OFFCURVE",
"135 89 CURVE",
"532 89 LINE",
"537 97 OFFCURVE",
"545 103 OFFCURVE",
"553 107 CURVE",
"553 588 LINE",
"545 593 OFFCURVE",
"538 599 OFFCURVE",
"534 607 CURVE",
"268 607 LINE",
"258 591 OFFCURVE",
"240 580 OFFCURVE",
"219 580 CURVE SMOOTH",
"187 580 OFFCURVE",
"162 606 OFFCURVE",
"162 636 CURVE SMOOTH",
"162 667 OFFCURVE",
"187 693 OFFCURVE",
"219 693 CURVE SMOOTH",
"240 693 OFFCURVE",
"258 682 OFFCURVE",
"268 665 CURVE",
"532 665 LINE",
"542 682 OFFCURVE",
"560 694 OFFCURVE",
"582 694 CURVE SMOOTH",
"613 694 OFFCURVE",
"639 668 OFFCURVE",
"639 637 CURVE SMOOTH",
"639 615 OFFCURVE",
"625 598 OFFCURVE",
"606 588 CURVE",
"606 107 LINE",
"624 98 OFFCURVE",
"636 79 OFFCURVE",
"636 58 CURVE SMOOTH",
"636 26 OFFCURVE",
"611 1 OFFCURVE",
"580 1 CURVE SMOOTH",
"558 1 OFFCURVE",
"539 13 OFFCURVE",
"529 31 CURVE",
"139 31 LINE",
"129 13 OFFCURVE",
"110 1 OFFCURVE",
"87 1 CURVE SMOOTH",
"56 1 OFFCURVE",
"30 26 OFFCURVE",
"30 57 CURVE SMOOTH"
);
},
{
closed = 1;
nodes = (
"69 48 OFFCURVE",
"78 39 OFFCURVE",
"87 39 CURVE SMOOTH",
"99 39 OFFCURVE",
"108 48 OFFCURVE",
"108 59 CURVE SMOOTH",
"108 70 OFFCURVE",
"99 80 OFFCURVE",
"87 80 CURVE SMOOTH",
"78 80 OFFCURVE",
"69 70 OFFCURVE",
"69 59 CURVE SMOOTH"
);
},
{
closed = 1;
nodes = (
"198 626 OFFCURVE",
"206 618 OFFCURVE",
"217 618 CURVE SMOOTH",
"229 618 OFFCURVE",
"237 626 OFFCURVE",
"237 638 CURVE SMOOTH",
"237 649 OFFCURVE",
"229 659 OFFCURVE",
"217 659 CURVE SMOOTH",
"206 659 OFFCURVE",
"198 649 OFFCURVE",
"198 638 CURVE SMOOTH"
);
},
{
closed = 1;
nodes = (
"558 47 OFFCURVE",
"568 37 OFFCURVE",
"579 37 CURVE SMOOTH",
"589 37 OFFCURVE",
"598 47 OFFCURVE",
"598 58 CURVE SMOOTH",
"598 69 OFFCURVE",
"589 77 OFFCURVE",
"579 77 CURVE SMOOTH",
"568 77 OFFCURVE",
"558 69 OFFCURVE",
"558 58 CURVE SMOOTH"
);
},
{
closed = 1;
nodes = (
"561 627 OFFCURVE",
"569 618 OFFCURVE",
"581 618 CURVE SMOOTH",
"591 618 OFFCURVE",
"599 627 OFFCURVE",
"599 638 CURVE SMOOTH",
"599 650 OFFCURVE",
"591 659 OFFCURVE",
"581 659 CURVE SMOOTH",
"569 659 OFFCURVE",
"561 650 OFFCURVE",
"561 638 CURVE SMOOTH"
);
}
);
width = 669;
}
);
unicode = 0032;
},
{
glyphname = three;
lastChange = "2022-09-30 17:00:20 +0000";
layers = (
{
layerId = "B1BCE86B-A7FB-414A-B0E3-B1B1CA0865E7";
paths = (
{
closed = 1;
nodes = (
"30 84 OFFCURVE",
"54 108 OFFCURVE",
"84 108 CURVE SMOOTH",
"95 108 OFFCURVE",
"106 105 OFFCURVE",
"115 99 CURVE",
"297 191 LINE",
"297 205 OFFCURVE",
"304 217 OFFCURVE",
"313 226 CURVE",
"156 579 LINE",
"156 579 LINE",
"127 579 OFFCURVE",
"104 604 OFFCURVE",
"104 633 CURVE SMOOTH",
"104 663 OFFCURVE",
"128 687 OFFCURVE",
"158 687 CURVE SMOOTH",
"188 687 OFFCURVE",
"212 663 OFFCURVE",
"212 633 CURVE SMOOTH",
"212 621 OFFCURVE",
"208 609 OFFCURVE",
"201 600 CURVE",
"361 241 LINE",
"387 237 OFFCURVE",
"406 215 OFFCURVE",
"406 188 CURVE SMOOTH",
"406 159 OFFCURVE",
"382 135 OFFCURVE",
"352 135 CURVE SMOOTH",
"339 135 OFFCURVE",
"328 139 OFFCURVE",
"318 146 CURVE",
"139 54 LINE",
"139 54 LINE SMOOTH",
"139 24 OFFCURVE",
"114 0 OFFCURVE",
"84 0 CURVE SMOOTH",
"54 0 OFFCURVE",
"30 24 OFFCURVE",
"30 54 CURVE SMOOTH"
);
},
{
closed = 1;
nodes = (
"66 46 OFFCURVE",
"75 37 OFFCURVE",
"85 37 CURVE SMOOTH",
"96 37 OFFCURVE",
"104 46 OFFCURVE",
"104 56 CURVE SMOOTH",
"104 67 OFFCURVE",
"96 75 OFFCURVE",
"85 75 CURVE SMOOTH",
"75 75 OFFCURVE",
"66 67 OFFCURVE",
"66 56 CURVE SMOOTH"
);
},
{
closed = 1;
nodes = (
"138 624 OFFCURVE",
"146 615 OFFCURVE",
"156 615 CURVE SMOOTH",
"167 615 OFFCURVE",
"175 624 OFFCURVE",
"175 634 CURVE SMOOTH",
"175 645 OFFCURVE",
"167 653 OFFCURVE",
"156 653 CURVE SMOOTH",
"146 653 OFFCURVE",
"138 645 OFFCURVE",
"138 634 CURVE SMOOTH"
);
},
{
closed = 1;
nodes = (
"332 179 OFFCURVE",
"341 170 OFFCURVE",
"351 170 CURVE SMOOTH",
"362 170 OFFCURVE",
"370 179 OFFCURVE",
"370 189 CURVE SMOOTH",
"370 200 OFFCURVE",
"362 208 OFFCURVE",
"351 208 CURVE SMOOTH",
"341 208 OFFCURVE",
"332 200 OFFCURVE",
"332 189 CURVE SMOOTH"
);
}
);
width = 436;
}
);
unicode = 0033;
},
{
glyphname = four;
lastChange = "2022-09-30 17:10:58 +0000";
layers = (
{
layerId = "B1BCE86B-A7FB-414A-B0E3-B1B1CA0865E7";
paths = (
{
closed = 1;
nodes = (
"30 662 OFFCURVE",
"57 689 OFFCURVE",
"90 689 CURVE SMOOTH",
"111 689 OFFCURVE",
"130 678 OFFCURVE",
"141 661 CURVE",
"530 661 LINE",
"540 680 OFFCURVE",
"560 692 OFFCURVE",
"583 692 CURVE SMOOTH",
"617 692 OFFCURVE",
"643 666 OFFCURVE",
"643 632 CURVE SMOOTH",
"643 609 OFFCURVE",
"630 590 OFFCURVE",
"610 580 CURVE",
"610 113 LINE",
"630 103 OFFCURVE",
"643 84 OFFCURVE",
"643 61 CURVE SMOOTH",
"643 29 OFFCURVE",
"617 2 OFFCURVE",
"583 2 CURVE SMOOTH",
"550 2 OFFCURVE",
"523 29 OFFCURVE",
"523 61 CURVE SMOOTH",
"523 83 OFFCURVE",
"536 103 OFFCURVE",
"555 112 CURVE",
"555 581 LINE",
"546 585 OFFCURVE",
"539 592 OFFCURVE",
"533 600 CURVE",
"142 600 LINE",
"132 582 OFFCURVE",
"112 570 OFFCURVE",
"90 570 CURVE SMOOTH",
"57 570 OFFCURVE",
"30 596 OFFCURVE",
"30 629 CURVE SMOOTH"
);
},
{
closed = 1;
nodes = (
"68 619 OFFCURVE",
"77 609 OFFCURVE",
"88 609 CURVE SMOOTH",
"100 609 OFFCURVE",
"109 619 OFFCURVE",
"109 630 CURVE SMOOTH",
"109 642 OFFCURVE",
"100 651 OFFCURVE",
"88 651 CURVE SMOOTH",
"77 651 OFFCURVE",
"68 642 OFFCURVE",
"68 630 CURVE SMOOTH"
);
},
{
closed = 1;
nodes = (
"560 622 OFFCURVE",
"570 613 OFFCURVE",
"581 613 CURVE SMOOTH",
"593 613 OFFCURVE",
"602 622 OFFCURVE",
"602 634 CURVE SMOOTH",
"602 646 OFFCURVE",
"593 656 OFFCURVE",
"581 656 CURVE SMOOTH",
"570 656 OFFCURVE",
"560 646 OFFCURVE",
"560 634 CURVE SMOOTH"
);
},
{
closed = 1;
nodes = (
"561 49 OFFCURVE",
"571 41 OFFCURVE",
"582 41 CURVE SMOOTH",
"593 41 OFFCURVE",
"603 49 OFFCURVE",
"603 62 CURVE SMOOTH",
"603 73 OFFCURVE",
"593 83 OFFCURVE",
"582 83 CURVE SMOOTH",
"571 83 OFFCURVE",
"561 73 OFFCURVE",
"561 62 CURVE SMOOTH"
);
}
);
width = 673;
}
);
unicode = 0034;
},
{
glyphname = five;
lastChange = "2022-09-30 17:10:28 +0000";
layers = (
{
layerId = "B1BCE86B-A7FB-414A-B0E3-B1B1CA0865E7";
paths = (
{
closed = 1;
nodes = (
"30 662 OFFCURVE",
"57 689 OFFCURVE",
"90 689 CURVE SMOOTH",
"111 689 OFFCURVE",
"130 678 OFFCURVE",
"141 661 CURVE",
"530 661 LINE",
"540 680 OFFCURVE",
"560 692 OFFCURVE",
"583 692 CURVE SMOOTH",
"617 692 OFFCURVE",
"643 666 OFFCURVE",
"643 632 CURVE SMOOTH",
"643 609 OFFCURVE",
"630 590 OFFCURVE",
"610 580 CURVE",
"610 113 LINE",
"630 103 OFFCURVE",
"643 84 OFFCURVE",
"643 61 CURVE SMOOTH",
"643 29 OFFCURVE",
"617 2 OFFCURVE",
"583 2 CURVE SMOOTH",
"550 2 OFFCURVE",
"523 29 OFFCURVE",
"523 61 CURVE SMOOTH",
"523 83 OFFCURVE",
"536 103 OFFCURVE",
"555 112 CURVE",
"555 581 LINE",
"546 585 OFFCURVE",
"539 592 OFFCURVE",
"533 600 CURVE",
"142 600 LINE",
"132 582 OFFCURVE",
"112 570 OFFCURVE",
"90 570 CURVE SMOOTH",
"57 570 OFFCURVE",
"30 596 OFFCURVE",
"30 629 CURVE SMOOTH"
);
},
{
closed = 1;
nodes = (
"44 88 OFFCURVE",
"55 105 OFFCURVE",
"75 115 CURVE",
"75 285 LINE",
"55 295 OFFCURVE",
"45 315 OFFCURVE",
"45 339 CURVE SMOOTH",
"45 371 OFFCURVE",
"71 397 OFFCURVE",
"104 397 CURVE SMOOTH",
"137 397 OFFCURVE",
"165 371 OFFCURVE",
"165 339 CURVE SMOOTH",
"165 316 OFFCURVE",
"152 296 OFFCURVE",
"133 285 CURVE",
"133 115 LINE",
"151 105 OFFCURVE",
"164 86 OFFCURVE",
"164 64 CURVE SMOOTH",
"164 32 OFFCURVE",
"136 5 OFFCURVE",
"103 5 CURVE SMOOTH",
"70 5 OFFCURVE",
"44 32 OFFCURVE",
"44 64 CURVE SMOOTH"
);
},
{
closed = 1;
nodes = (
"68 619 OFFCURVE",
"77 609 OFFCURVE",
"88 609 CURVE SMOOTH",
"100 609 OFFCURVE",
"109 619 OFFCURVE",
"109 630 CURVE SMOOTH",
"109 642 OFFCURVE",
"100 651 OFFCURVE",
"88 651 CURVE SMOOTH",
"77 651 OFFCURVE",
"68 642 OFFCURVE",
"68 630 CURVE SMOOTH"
);
},
{
closed = 1;
nodes = (
"82 328 OFFCURVE",
"91 319 OFFCURVE",
"103 319 CURVE SMOOTH",
"114 319 OFFCURVE",
"124 328 OFFCURVE",
"124 340 CURVE SMOOTH",
"124 351 OFFCURVE",
"114 361 OFFCURVE",
"103 361 CURVE SMOOTH",
"91 361 OFFCURVE",
"82 351 OFFCURVE",
"82 340 CURVE SMOOTH"
);
},
{
closed = 1;
nodes = (
"83 55 OFFCURVE",
"93 45 OFFCURVE",
"104 45 CURVE SMOOTH",
"115 45 OFFCURVE",
"125 55 OFFCURVE",
"125 66 CURVE SMOOTH",
"125 78 OFFCURVE",
"115 88 OFFCURVE",
"104 88 CURVE SMOOTH",
"93 88 OFFCURVE",
"83 78 OFFCURVE",
"83 66 CURVE SMOOTH"
);
},
{
closed = 1;
nodes = (
"560 622 OFFCURVE",
"570 613 OFFCURVE",
"581 613 CURVE SMOOTH",
"593 613 OFFCURVE",
"602 622 OFFCURVE",
"602 634 CURVE SMOOTH",
"602 646 OFFCURVE",
"593 656 OFFCURVE",
"581 656 CURVE SMOOTH",
"570 656 OFFCURVE",
"560 646 OFFCURVE",
"560 634 CURVE SMOOTH"
);
},
{
closed = 1;
nodes = (
"561 49 OFFCURVE",
"571 41 OFFCURVE",
"582 41 CURVE SMOOTH",
"593 41 OFFCURVE",
"603 49 OFFCURVE",
"603 62 CURVE SMOOTH",
"603 73 OFFCURVE",
"593 83 OFFCURVE",
"582 83 CURVE SMOOTH",
"571 83 OFFCURVE",
"561 73 OFFCURVE",
"561 62 CURVE SMOOTH"
);
}
);
width = 673;
}
);
unicode = 0035;
},
{
glyphname = six;
lastChange = "2022-09-30 17:15:48 +0000";
layers = (
{
layerId = "B1BCE86B-A7FB-414A-B0E3-B1B1CA0865E7";
paths = (
{
closed = 1;
nodes = (
"30 671 OFFCURVE",
"56 696 OFFCURVE",
"87 696 CURVE SMOOTH",
"118 696 OFFCURVE",
"143 668 OFFCURVE",
"143 638 CURVE",
"143 638 LINE",
"265 552 LINE",
"272 556 OFFCURVE",
"281 558 OFFCURVE",
"290 558 CURVE SMOOTH",
"321 558 OFFCURVE",
"347 533 OFFCURVE",
"347 502 CURVE SMOOTH",
"347 480 OFFCURVE",
"334 462 OFFCURVE",
"316 452 CURVE",
"316 106 LINE",
"334 97 OFFCURVE",
"346 78 OFFCURVE",
"346 57 CURVE SMOOTH",
"346 25 OFFCURVE",
"320 0 OFFCURVE",
"289 0 CURVE SMOOTH",
"258 0 OFFCURVE",
"233 25 OFFCURVE",
"233 57 CURVE SMOOTH",
"233 78 OFFCURVE",
"246 97 OFFCURVE",
"264 106 CURVE",
"264 452 LINE",
"246 462 OFFCURVE",
"234 480 OFFCURVE",
"234 502 CURVE SMOOTH",
"234 505 OFFCURVE",
"234 507 OFFCURVE",
"235 510 CURVE",
"114 592 LINE",
"106 588 OFFCURVE",
"97 585 OFFCURVE",
"87 585 CURVE SMOOTH",
"56 585 OFFCURVE",
"30 610 OFFCURVE",
"30 641 CURVE SMOOTH"
);
},
{
closed = 1;
nodes = (
"65 631 OFFCURVE",
"75 623 OFFCURVE",
"85 623 CURVE SMOOTH",
"95 623 OFFCURVE",
"105 631 OFFCURVE",
"105 642 CURVE SMOOTH",
"105 653 OFFCURVE",
"95 662 OFFCURVE",
"85 662 CURVE SMOOTH",
"75 662 OFFCURVE",
"65 653 OFFCURVE",
"65 642 CURVE SMOOTH"
);
},
{
closed = 1;
nodes = (
"269 46 OFFCURVE",
"277 37 OFFCURVE",
"289 37 CURVE SMOOTH",
"299 37 OFFCURVE",
"308 46 OFFCURVE",
"308 57 CURVE SMOOTH",
"308 68 OFFCURVE",
"299 77 OFFCURVE",
"289 77 CURVE SMOOTH",
"277 77 OFFCURVE",
"269 68 OFFCURVE",
"269 57 CURVE SMOOTH"
);
},
{
closed = 1;
nodes = (
"269 493 OFFCURVE",
"277 483 OFFCURVE",
"289 483 CURVE SMOOTH",
"299 483 OFFCURVE",
"308 493 OFFCURVE",
"308 503 CURVE SMOOTH",
"308 514 OFFCURVE",
"299 523 OFFCURVE",
"289 523 CURVE SMOOTH",
"277 523 OFFCURVE",
"269 514 OFFCURVE",
"269 503 CURVE SMOOTH"
);
}
);
width = 377;
}
);
unicode = 0036;
},
{
glyphname = seven;
lastChange = "2022-09-30 17:18:53 +0000";
layers = (
{
layerId = "B1BCE86B-A7FB-414A-B0E3-B1B1CA0865E7";
paths = (
{
closed = 1;
nodes = (
"30 671 OFFCURVE",
"56 696 OFFCURVE",
"87 696 CURVE SMOOTH",
"118 696 OFFCURVE",
"143 671 OFFCURVE",
"143 640 CURVE SMOOTH",
"143 634 LINE",
"265 551 LINE",
"272 555 OFFCURVE",
"281 557 OFFCURVE",
"290 557 CURVE SMOOTH",
"321 557 OFFCURVE",
"347 532 OFFCURVE",
"347 501 CURVE SMOOTH",
"347 470 OFFCURVE",
"321 445 OFFCURVE",
"290 445 CURVE SMOOTH",
"259 445 OFFCURVE",
"234 470 OFFCURVE",
"234 501 CURVE SMOOTH",
"234 504 OFFCURVE",
"234 506 OFFCURVE",
"235 509 CURVE",
"134 577 LINE",
"296 111 LINE",
"324 107 OFFCURVE",
"346 84 OFFCURVE",
"346 56 CURVE SMOOTH",
"346 24 OFFCURVE",
"320 0 OFFCURVE",
"289 0 CURVE SMOOTH",
"258 0 OFFCURVE",
"233 24 OFFCURVE",
"233 56 CURVE SMOOTH",
"233 70 OFFCURVE",
"238 82 OFFCURVE",
"247 92 CURVE",
"78 585 LINE",
"51 589 OFFCURVE",
"30 612 OFFCURVE",
"30 640 CURVE SMOOTH"
);
},
{
closed = 1;
nodes = (
"65 630 OFFCURVE",
"75 622 OFFCURVE",
"85 622 CURVE SMOOTH",
"95 622 OFFCURVE",
"105 630 OFFCURVE",
"105 641 CURVE SMOOTH",
"105 652 OFFCURVE",
"95 661 OFFCURVE",
"85 661 CURVE SMOOTH",
"75 661 OFFCURVE",
"65 652 OFFCURVE",
"65 641 CURVE SMOOTH"
);
},
{
closed = 1;
nodes = (
"269 45 OFFCURVE",
"277 36 OFFCURVE",
"289 36 CURVE SMOOTH",
"299 36 OFFCURVE",
"308 45 OFFCURVE",
"308 56 CURVE SMOOTH",
"308 67 OFFCURVE",
"299 76 OFFCURVE",
"289 76 CURVE SMOOTH",
"277 76 OFFCURVE",
"269 67 OFFCURVE",
"269 56 CURVE SMOOTH"
);
},
{
closed = 1;
nodes = (
"269 492 OFFCURVE",
"277 482 OFFCURVE",
"289 482 CURVE SMOOTH",
"299 482 OFFCURVE",
"308 492 OFFCURVE",
"308 502 CURVE SMOOTH",
"308 513 OFFCURVE",
"299 522 OFFCURVE",
"289 522 CURVE SMOOTH",
"277 522 OFFCURVE",
"269 513 OFFCURVE",
"269 502 CURVE SMOOTH"
);
}
);
width = 377;
}
);
unicode = 0037;
},
{
glyphname = eight;
lastChange = "2022-09-30 17:21:58 +0000";
layers = (
{
layerId = "B1BCE86B-A7FB-414A-B0E3-B1B1CA0865E7";
paths = (
{
closed = 1;
nodes = (
"30 81 OFFCURVE",
"42 100 OFFCURVE",
"60 111 CURVE",
"60 575 LINE",
"42 586 OFFCURVE",
"30 605 OFFCURVE",
"30 628 CURVE SMOOTH",
"30 661 OFFCURVE",
"55 688 OFFCURVE",
"89 688 CURVE SMOOTH",
"110 688 OFFCURVE",
"129 677 OFFCURVE",
"139 660 CURVE",
"529 660 LINE",
"539 678 OFFCURVE",
"560 691 OFFCURVE",
"583 691 CURVE SMOOTH",
"615 691 OFFCURVE",
"642 664 OFFCURVE",
"642 632 CURVE SMOOTH",
"642 609 OFFCURVE",
"628 589 OFFCURVE",
"609 579 CURVE",
"609 112 LINE",
"628 102 OFFCURVE",
"642 82 OFFCURVE",
"642 59 CURVE SMOOTH",
"642 28 OFFCURVE",
"615 0 OFFCURVE",
"583 0 CURVE SMOOTH",
"549 0 OFFCURVE",
"521 28 OFFCURVE",
"521 59 CURVE SMOOTH",
"521 81 OFFCURVE",
"534 101 OFFCURVE",
"554 111 CURVE",
"554 580 LINE",
"545 584 OFFCURVE",
"537 591 OFFCURVE",
"532 599 CURVE",
"141 599 LINE",
"135 589 OFFCURVE",
"126 580 OFFCURVE",
"116 575 CURVE",
"116 112 LINE",
"136 102 OFFCURVE",
"149 82 OFFCURVE",
"149 59 CURVE SMOOTH",
"149 27 OFFCURVE",
"122 0 OFFCURVE",
"89 0 CURVE SMOOTH",
"55 0 OFFCURVE",
"30 27 OFFCURVE",
"30 59 CURVE SMOOTH"
);
},
{
closed = 1;
nodes = (
"67 618 OFFCURVE",
"76 608 OFFCURVE",
"87 608 CURVE SMOOTH",
"99 608 OFFCURVE",
"107 618 OFFCURVE",
"107 630 CURVE SMOOTH",
"107 641 OFFCURVE",
"99 650 OFFCURVE",
"87 650 CURVE SMOOTH",
"76 650 OFFCURVE",
"67 641 OFFCURVE",
"67 630 CURVE SMOOTH"
);
},
{
closed = 1;
nodes = (
"69 49 OFFCURVE",
"79 41 OFFCURVE",
"90 41 CURVE SMOOTH",
"101 41 OFFCURVE",
"111 49 OFFCURVE",
"111 62 CURVE SMOOTH",
"111 74 OFFCURVE",
"101 83 OFFCURVE",
"90 83 CURVE SMOOTH",
"79 83 OFFCURVE",
"69 74 OFFCURVE",
"69 62 CURVE SMOOTH"
);
},
{
closed = 1;
nodes = (
"559 621 OFFCURVE",
"569 611 OFFCURVE",
"581 611 CURVE SMOOTH",
"593 611 OFFCURVE",
"601 621 OFFCURVE",
"601 633 CURVE SMOOTH",
"601 645 OFFCURVE",
"593 654 OFFCURVE",
"581 654 CURVE SMOOTH",
"569 654 OFFCURVE",
"559 645 OFFCURVE",
"559 633 CURVE SMOOTH"
);
},
{
closed = 1;
nodes = (
"560 48 OFFCURVE",
"570 39 OFFCURVE",
"582 39 CURVE SMOOTH",
"593 39 OFFCURVE",
"602 48 OFFCURVE",
"602 60 CURVE SMOOTH",
"602 72 OFFCURVE",
"593 82 OFFCURVE",
"582 82 CURVE SMOOTH",
"570 82 OFFCURVE",
"560 72 OFFCURVE",
"560 60 CURVE SMOOTH"
);
}
);
width = 672;
}
);
unicode = 0038;
},
{
glyphname = nine;
lastChange = "2022-09-30 17:25:09 +0000";
layers = (
{
layerId = "B1BCE86B-A7FB-414A-B0E3-B1B1CA0865E7";
paths = (
{
closed = 1;
nodes = (
"30 86 OFFCURVE",
"43 106 OFFCURVE",
"63 116 CURVE",
"63 302 LINE",
"117 302 LINE",
"117 115 LINE",
"127 110 OFFCURVE",
"135 102 OFFCURVE",
"140 93 CURVE",
"596 93 LINE",
"605 111 OFFCURVE",
"625 124 OFFCURVE",
"647 124 CURVE SMOOTH",
"680 124 OFFCURVE",
"706 98 OFFCURVE",
"706 66 CURVE SMOOTH",
"706 34 OFFCURVE",
"680 8 OFFCURVE",
"647 8 CURVE SMOOTH",
"627 8 OFFCURVE",
"609 18 OFFCURVE",
"599 34 CURVE",
"140 34 LINE",
"130 17 OFFCURVE",
"111 6 OFFCURVE",
"90 6 CURVE SMOOTH",
"57 6 OFFCURVE",
"30 32 OFFCURVE",
"30 63 CURVE SMOOTH"
);
},
{
closed = 1;
nodes = (
"68 661 OFFCURVE",
"94 687 OFFCURVE",
"127 687 CURVE SMOOTH",
"159 687 OFFCURVE",
"186 661 OFFCURVE",
"186 628 CURVE SMOOTH",
"186 620 OFFCURVE",
"184 612 OFFCURVE",
"181 605 CURVE",
"370 419 LINE",
"332 380 LINE",
"139 571 LINE",
"135 570 OFFCURVE",
"131 570 OFFCURVE",
"127 570 CURVE SMOOTH",
"94 570 OFFCURVE",
"68 596 OFFCURVE",
"68 628 CURVE SMOOTH"
);
},
{
closed = 1;
nodes = (
"70 54 OFFCURVE",
"79 45 OFFCURVE",
"91 45 CURVE SMOOTH",
"102 45 OFFCURVE",
"110 54 OFFCURVE",
"110 66 CURVE SMOOTH",
"110 77 OFFCURVE",
"102 87 OFFCURVE",
"91 87 CURVE SMOOTH",
"79 87 OFFCURVE",
"70 77 OFFCURVE",
"70 66 CURVE SMOOTH"
);
},
{
closed = 1;
nodes = (
"105 618 OFFCURVE",
"114 609 OFFCURVE",
"126 609 CURVE SMOOTH",
"136 609 OFFCURVE",
"145 618 OFFCURVE",
"145 629 CURVE SMOOTH",
"145 641 OFFCURVE",
"136 650 OFFCURVE",
"126 650 CURVE SMOOTH",
"114 650 OFFCURVE",
"105 641 OFFCURVE",
"105 629 CURVE SMOOTH"
);
},
{
closed = 1;
nodes = (
"431 670 OFFCURVE",
"457 696 OFFCURVE",
"489 696 CURVE SMOOTH",
"522 696 OFFCURVE",
"548 670 OFFCURVE",
"548 638 CURVE SMOOTH",
"548 629 OFFCURVE",
"546 621 OFFCURVE",
"542 614 CURVE",
"723 438 LINE",
"685 399 LINE",
"499 582 LINE",
"496 581 OFFCURVE",
"493 581 OFFCURVE",
"489 581 CURVE SMOOTH",
"457 581 OFFCURVE",
"431 607 OFFCURVE",
"431 638 CURVE SMOOTH"
);
},
{
closed = 1;
nodes = (
"468 628 OFFCURVE",
"476 620 OFFCURVE",
"487 620 CURVE SMOOTH",
"499 620 OFFCURVE",
"508 628 OFFCURVE",
"508 640 CURVE SMOOTH",
"508 651 OFFCURVE",
"499 661 OFFCURVE",
"487 661 CURVE SMOOTH",
"476 661 OFFCURVE",
"468 651 OFFCURVE",
"468 640 CURVE SMOOTH"
);
},
{
closed = 1;
nodes = (
"627 56 OFFCURVE",
"635 46 OFFCURVE",
"646 46 CURVE SMOOTH",
"658 46 OFFCURVE",
"667 56 OFFCURVE",
"667 66 CURVE SMOOTH",
"667 78 OFFCURVE",
"658 87 OFFCURVE",
"646 87 CURVE SMOOTH",
"635 87 OFFCURVE",
"627 78 OFFCURVE",
"627 66 CURVE SMOOTH"
);
}
);
width = 753;
}
);
unicode = 0039;
},
{
glyphname = period;
lastChange = "2019-12-27 10:06:27 +0000";
layers = (
{
layerId = "B1BCE86B-A7FB-414A-B0E3-B1B1CA0865E7";
paths = (
{
closed = 1;
nodes = (
"30 93 OFFCURVE",
"56 119 OFFCURVE",
"90 119 CURVE SMOOTH",
"123 119 OFFCURVE",
"150 93 OFFCURVE",
"150 60 CURVE SMOOTH",
"150 27 OFFCURVE",
"123 1 OFFCURVE",
"90 1 CURVE SMOOTH",
"56 1 OFFCURVE",
"30 27 OFFCURVE",
"30 60 CURVE SMOOTH"
);
},
{
closed = 1;
nodes = (
"68 49 OFFCURVE",
"77 39 OFFCURVE",
"89 39 CURVE SMOOTH",
"100 39 OFFCURVE",
"110 49 OFFCURVE",
"110 61 CURVE SMOOTH",
"110 72 OFFCURVE",
"100 82 OFFCURVE",
"89 82 CURVE SMOOTH",
"77 82 OFFCURVE",
"68 72 OFFCURVE",
"68 61 CURVE SMOOTH"
);
}
);
width = 180;
}
);
unicode = 002E;
},
{
glyphname = comma;
lastChange = "2019-12-27 10:07:11 +0000";
layers = (
{
layerId = "B1BCE86B-A7FB-414A-B0E3-B1B1CA0865E7";
paths = (
{
closed = 1;
nodes = (
"62 89 LINE",
"120 89 LINE",
"120 34 LINE",
"62 34 LINE"
);
},
{
closed = 1;
nodes = (
"89 119 LINE",
"123 119 OFFCURVE",
"149 92 OFFCURVE",
"149 60 CURVE",
"149 27 OFFCURVE",
"123 1 OFFCURVE",
"89 1 CURVE",
"56 1 OFFCURVE",
"30 27 OFFCURVE",
"30 60 CURVE",
"30 92 OFFCURVE",
"56 119 OFFCURVE",
"89 119 CURVE"
);
},
{
closed = 1;
nodes = (
"88 81 LINE",
"101 81 OFFCURVE",
"109 73 OFFCURVE",
"109 60 CURVE",
"109 49 OFFCURVE",
"101 39 OFFCURVE",
"88 39 CURVE",
"77 39 OFFCURVE",
"69 49 OFFCURVE",
"69 60 CURVE",
"69 73 OFFCURVE",
"77 81 OFFCURVE",
"88 81 CURVE"
);
}
);
width = 179;
}
);
unicode = 002C;
},
{
glyphname = hyphen;
lastChange = "2022-09-30 17:26:03 +0000";
layers = (
{
layerId = "B1BCE86B-A7FB-414A-B0E3-B1B1CA0865E7";
paths = (
{
closed = 1;
nodes = (
"30 330 OFFCURVE",
"57 356 OFFCURVE",
"89 356 CURVE SMOOTH",
"110 356 OFFCURVE",
"128 346 OFFCURVE",
"138 330 CURVE",
"521 330 LINE",
"531 348 OFFCURVE",
"551 360 OFFCURVE",
"573 360 CURVE SMOOTH",
"606 360 OFFCURVE",
"632 335 OFFCURVE",
"632 302 CURVE SMOOTH",
"632 270 OFFCURVE",
"606 244 OFFCURVE",
"573 244 CURVE SMOOTH",
"552 244 OFFCURVE",
"534 255 OFFCURVE",
"523 271 CURVE",
"141 271 LINE",
"131 252 OFFCURVE",
"112 240 OFFCURVE",
"89 240 CURVE SMOOTH",
"57 240 OFFCURVE",
"30 266 OFFCURVE",
"30 299 CURVE SMOOTH"
);
},
{
closed = 1;
nodes = (
"67 288 OFFCURVE",
"76 279 OFFCURVE",
"87 279 CURVE SMOOTH",
"98 279 OFFCURVE",
"108 288 OFFCURVE",
"108 300 CURVE SMOOTH",
"108 312 OFFCURVE",
"98 320 OFFCURVE",
"87 320 CURVE SMOOTH",
"76 320 OFFCURVE",
"67 312 OFFCURVE",
"67 300 CURVE SMOOTH"
);
},
{
closed = 1;
nodes = (
"550 292 OFFCURVE",
"560 283 OFFCURVE",
"571 283 CURVE SMOOTH",
"582 283 OFFCURVE",
"592 292 OFFCURVE",
"592 303 CURVE SMOOTH",
"592 315 OFFCURVE",
"582 324 OFFCURVE",
"571 324 CURVE SMOOTH",
"560 324 OFFCURVE",
"550 315 OFFCURVE",
"550 303 CURVE SMOOTH"
);
}
);
width = 662;
}
);
unicode = 002D;
},
